<svg width="21" height="21" viewBox="0 0 21 21" fill="none" xmlns="http://www.w3.org/2000/svg">
<path d="M0.86936 1.79631C0.791888 1.71883 0.730435 1.62686 0.688507 1.52564C0.64658 1.42442 0.625 1.31593 0.625 1.20637C0.625 1.09681 0.64658 0.988318 0.688507 0.887096C0.730435 0.785875 0.791888 0.693902 0.86936 0.61643C0.946832 0.538959 1.0388 0.477505 1.14003 0.435578C1.24125 0.39365 1.34974 0.37207 1.4593 0.37207C1.56886 0.37207 1.67735 0.39365 1.77857 0.435578C1.87979 0.477505 1.97176 0.538959 2.04924 0.61643L10.625 9.19386L19.2008 0.61643C19.2782 0.538959 19.3702 0.477505 19.4714 0.435578C19.5727 0.39365 19.6811 0.37207 19.7907 0.37207C19.9003 0.37207 20.0088 0.39365 20.11 0.435578C20.2112 0.477505 20.3032 0.538959 20.3806 0.61643C20.4581 0.693902 20.5196 0.785875 20.5615 0.887096C20.6034 0.988318 20.625 1.09681 20.625 1.20637C20.625 1.31593 20.6034 1.42442 20.5615 1.52564C20.5196 1.62686 20.4581 1.71883 20.3806 1.79631L11.8032 10.3721L20.3806 18.9478C20.4581 19.0253 20.5196 19.1173 20.5615 19.2185C20.6034 19.3197 20.625 19.4282 20.625 19.5378C20.625 19.6473 20.6034 19.7558 20.5615 19.857C20.5196 19.9583 20.4581 20.0502 20.3806 20.1277C20.3032 20.2052 20.2112 20.2666 20.11 20.3086C20.0088 20.3505 19.9003 20.3721 19.7907 20.3721C19.6811 20.3721 19.5727 20.3505 19.4714 20.3086C19.3702 20.2666 19.2782 20.2052 19.2008 20.1277L10.625 11.5503L2.04924 20.1277C1.97176 20.2052 1.87979 20.2666 1.77857 20.3086C1.67735 20.3505 1.56886 20.3721 1.4593 20.3721C1.34974 20.3721 1.24125 20.3505 1.14003 20.3086C1.0388 20.2666 0.946832 20.2052 0.86936 20.1277C0.791888 20.0502 0.730435 19.9583 0.688507 19.857C0.64658 19.7558 0.625 19.6473 0.625 19.5378C0.625 19.4282 0.64658 19.3197 0.688507 19.2185C0.730435 19.1173 0.791888 19.0253 0.86936 18.9478L9.44679 10.3721L0.86936 1.79631Z" fill="black"/>
</svg>
