<svg width="13" height="10" viewBox="0 0 13 10" fill="none" xmlns="http://www.w3.org/2000/svg">
<path d="M12.1797 0.18092C12.2297 0.238124 12.2693 0.30608 12.2964 0.380896C12.3234 0.455712 12.3373 0.535918 12.3373 0.616919C12.3373 0.697921 12.3234 0.778126 12.2964 0.852942C12.2693 0.927758 12.2297 0.995715 12.1797 1.05292L4.67107 9.67438C4.62125 9.73173 4.56207 9.77723 4.49691 9.80827C4.43175 9.83932 4.3619 9.8553 4.29135 9.8553C4.2208 9.8553 4.15095 9.83932 4.08579 9.80827C4.02063 9.77723 3.96145 9.73173 3.91162 9.67438L0.157287 5.36365C0.0565777 5.24801 0 5.09118 0 4.92765C0 4.76412 0.0565777 4.60728 0.157287 4.49165C0.257996 4.37601 0.394587 4.31105 0.537011 4.31105C0.679436 4.31105 0.816027 4.37601 0.916736 4.49165L4.29135 8.36761L11.4203 0.18092C11.4701 0.123571 11.5293 0.0780707 11.5945 0.0470255C11.6596 0.0159803 11.7295 0 11.8 0C11.8706 0 11.9404 0.0159803 12.0056 0.0470255C12.0707 0.0780707 12.1299 0.123571 12.1797 0.18092Z" fill="#3F9AE2"/>
</svg>
