<svg width="21" height="21" viewBox="0 0 21 21" fill="none" xmlns="http://www.w3.org/2000/svg">
<path d="M10.5013 7.72949C9.00355 7.72949 7.73047 9.00258 7.73047 10.5003C7.73047 11.9981 9.00355 13.2712 10.5013 13.2712C11.9991 13.2712 13.2721 11.9981 13.2721 10.5003C13.2721 9.00258 11.9991 7.72949 10.5013 7.72949Z" fill="black"/>
<path d="M14.0517 2.1875H7.02386C4.30341 2.1875 2.1875 4.30341 2.1875 6.9483V13.9761C2.1875 16.6966 4.30341 18.8125 7.02386 18.8125H14.0517C16.6966 18.8125 18.8125 16.6966 18.8125 13.9761V6.9483C18.8125 4.30341 16.6966 2.1875 14.0517 2.1875ZM10.5 14.883C8.08182 14.883 6.19261 12.9182 6.19261 10.5756C6.19261 8.23295 8.08182 6.19261 10.5 6.19261C12.9182 6.19261 14.8074 8.15739 14.8074 10.5C14.8074 12.8426 12.9182 14.883 10.5 14.883ZM14.9585 7.09943C14.4295 7.09943 13.9761 6.64602 13.9761 6.11705C13.9761 5.58807 14.4295 5.13466 14.9585 5.13466C15.4875 5.13466 15.9409 5.58807 15.9409 6.11705C15.9409 6.64602 15.4875 7.09943 14.9585 7.09943Z" fill="black"/>
</svg>
