<svg width="13" height="13" viewBox="0 0 13 13" fill="none" xmlns="http://www.w3.org/2000/svg">
<path d="M6.5 12.4375C5.68594 12.4375 4.91771 12.2815 4.19531 11.9694C3.47292 11.6573 2.84292 11.2324 2.30531 10.6947C1.7676 10.1571 1.34271 9.52708 1.03063 8.80469C0.718542 8.08229 0.5625 7.31406 0.5625 6.5C0.5625 5.67948 0.718542 4.90964 1.03063 4.19047C1.34271 3.4713 1.7676 2.84292 2.30531 2.30531C2.84292 1.7676 3.47292 1.34271 4.19531 1.03063C4.91771 0.718542 5.68594 0.5625 6.5 0.5625C7.32052 0.5625 8.09036 0.718542 8.80953 1.03063C9.5287 1.34271 10.1571 1.7676 10.6947 2.30531C11.2324 2.84292 11.6573 3.4713 11.9694 4.19047C12.2815 4.90964 12.4375 5.67948 12.4375 6.5C12.4375 7.31406 12.2815 8.08229 11.9694 8.80469C11.6573 9.52708 11.2324 10.1571 10.6947 10.6947C10.1571 11.2324 9.5287 11.6573 8.80953 11.9694C8.09036 12.2815 7.32052 12.4375 6.5 12.4375ZM6.5 11.4867C6.81896 11.0637 7.0874 10.637 7.30531 10.2067C7.52323 9.77641 7.70073 9.30604 7.83781 8.79563H5.16219C5.30729 9.32208 5.48682 9.80047 5.70078 10.2308C5.91464 10.6611 6.18104 11.0797 6.5 11.4867ZM5.28969 11.3148C5.0501 10.9711 4.83495 10.5803 4.64422 10.1425C4.45349 9.70458 4.30526 9.25563 4.19953 8.79563H2.07938C2.40948 9.44469 2.85219 9.99 3.4075 10.4316C3.96281 10.873 4.59021 11.1674 5.28969 11.3148ZM7.71031 11.3148C8.40979 11.1674 9.03719 10.873 9.5925 10.4316C10.1478 9.99 10.5905 9.44469 10.9206 8.79563H8.80047C8.67464 9.25958 8.51635 9.71052 8.32563 10.1484C8.135 10.5864 7.9299 10.9752 7.71031 11.3148ZM1.68625 7.85813H4.00969C3.97042 7.62583 3.94193 7.39807 3.92422 7.17484C3.90661 6.95172 3.89781 6.72677 3.89781 6.5C3.89781 6.27323 3.90661 6.04828 3.92422 5.82516C3.94193 5.60193 3.97042 5.37417 4.00969 5.14188H1.68625C1.62615 5.35417 1.5801 5.5749 1.54813 5.80406C1.51604 6.03323 1.5 6.26521 1.5 6.5C1.5 6.73479 1.51604 6.96677 1.54813 7.19594C1.5801 7.4251 1.62615 7.64583 1.68625 7.85813ZM4.94703 7.85813H8.05297C8.09214 7.62583 8.12057 7.4001 8.13828 7.18094C8.15589 6.96177 8.16469 6.73479 8.16469 6.5C8.16469 6.26521 8.15589 6.03823 8.13828 5.81906C8.12057 5.5999 8.09214 5.37417 8.05297 5.14188H4.94703C4.90786 5.37417 4.87943 5.5999 4.86172 5.81906C4.84411 6.03823 4.83531 6.26521 4.83531 6.5C4.83531 6.73479 4.84411 6.96177 4.86172 7.18094C4.87943 7.4001 4.90786 7.62583 4.94703 7.85813ZM8.99031 7.85813H11.3138C11.3739 7.64583 11.4199 7.4251 11.4519 7.19594C11.484 6.96677 11.5 6.73479 11.5 6.5C11.5 6.26521 11.484 6.03323 11.4519 5.80406C11.4199 5.5749 11.3739 5.35417 11.3138 5.14188H8.99031C9.02958 5.37417 9.05807 5.60193 9.07578 5.82516C9.09339 6.04828 9.10219 6.27323 9.10219 6.5C9.10219 6.72677 9.09339 6.95172 9.07578 7.17484C9.05807 7.39807 9.02958 7.62583 8.99031 7.85813ZM8.80047 4.20438H10.9206C10.5866 3.54729 10.1469 3.00198 9.60156 2.56844C9.05625 2.135 8.42583 1.83854 7.71031 1.67906C7.9499 2.04281 8.16302 2.44068 8.34969 2.87266C8.53646 3.30453 8.68672 3.74844 8.80047 4.20438ZM5.16219 4.20438H7.83781C7.69271 3.68188 7.51021 3.20047 7.29031 2.76016C7.07031 2.31984 6.80687 1.90422 6.5 1.51328C6.19313 1.90422 5.92969 2.31984 5.70969 2.76016C5.48979 3.20047 5.30729 3.68188 5.16219 4.20438ZM2.07938 4.20438H4.19953C4.31328 3.74844 4.46354 3.30453 4.65031 2.87266C4.83698 2.44068 5.0501 2.04281 5.28969 1.67906C4.5701 1.83854 3.9387 2.13604 3.39547 2.57156C2.85214 3.00698 2.41344 3.55125 2.07938 4.20438Z" fill="white"/>
</svg>
