<svg width="19" height="19" viewBox="0 0 19 19" fill="none" xmlns="http://www.w3.org/2000/svg">
<path d="M18.5162 15.9819L16.1071 13.4524C15.7494 13.078 15.237 12.8635 14.7004 12.8635C14.4284 12.8635 14.1638 12.9198 13.9216 13.0235L12.4814 11.51C13.7092 10.2866 14.4638 8.6378 14.4638 6.82376C14.4656 3.06032 11.2219 0 7.23282 0C3.24378 0 0 3.06032 0 6.822C0 10.5837 3.24564 13.6458 7.23282 13.6458C8.82955 13.6458 10.307 13.1536 11.5051 12.3239L12.9751 13.869C12.623 14.5088 12.7049 15.3139 13.2434 15.8817L15.6525 18.4111C16.0083 18.7855 16.5226 19 17.0592 19C17.5268 19 17.974 18.8383 18.3205 18.5447L18.3746 18.499C19.1496 17.8416 19.213 16.7131 18.5162 15.9819ZM1.30422 6.822C1.30422 3.73883 3.96482 1.23046 7.23282 1.23046C10.5008 1.23046 13.1614 3.73883 13.1614 6.822C13.1614 9.90517 10.5027 12.4153 7.23282 12.4153C3.96296 12.4153 1.30422 9.90693 1.30422 6.822ZM17.5026 17.5832L17.4486 17.6289C17.2194 17.824 16.8281 17.8029 16.6232 17.5867L14.2141 15.0573C13.998 14.8305 14.0185 14.4807 14.257 14.2786L14.311 14.2329C14.4172 14.1432 14.5551 14.0922 14.7004 14.0922C14.8681 14.0922 15.0265 14.159 15.1364 14.2733L17.5455 16.8028C17.7616 17.0295 17.7411 17.3793 17.5007 17.5815L17.5026 17.5832Z" fill="black"/>
</svg>
