<svg width="80" height="80" viewBox="0 0 80 80" fill="none" xmlns="http://www.w3.org/2000/svg">
<path d="M40 0C29.145 0 27.78 0.05 23.515 0.24C19.25 0.44 16.345 1.11 13.8 2.1C11.1292 3.10163 8.71071 4.67699 6.715 6.715C4.67699 8.71071 3.10163 11.1292 2.1 13.8C1.11 16.34 0.435 19.25 0.24 23.5C0.05 27.775 0 29.135 0 40.005C0 50.865 0.05 52.225 0.24 56.49C0.44 60.75 1.11 63.655 2.1 66.2C3.125 68.83 4.49 71.06 6.715 73.285C8.935 75.51 11.165 76.88 13.795 77.9C16.345 78.89 19.245 79.565 23.505 79.76C27.775 79.95 29.135 80 40 80C50.865 80 52.22 79.95 56.49 79.76C60.745 79.56 63.66 78.89 66.205 77.9C68.874 76.8977 71.2907 75.3224 73.285 73.285C75.51 71.06 76.875 68.83 77.9 66.2C78.885 63.655 79.56 60.75 79.76 56.49C79.95 52.225 80 50.865 80 40C80 29.135 79.95 27.775 79.76 23.505C79.56 19.25 78.885 16.34 77.9 13.8C76.8984 11.1292 75.323 8.71071 73.285 6.715C71.2893 4.67699 68.8708 3.10163 66.2 2.1C63.65 1.11 60.74 0.435 56.485 0.24C52.215 0.05 50.86 0 39.99 0H40ZM36.415 7.21H40.005C50.685 7.21 51.95 7.245 56.165 7.44C60.065 7.615 62.185 8.27 63.595 8.815C65.46 9.54 66.795 10.41 68.195 11.81C69.595 13.21 70.46 14.54 71.185 16.41C71.735 17.815 72.385 19.935 72.56 23.835C72.755 28.05 72.795 29.315 72.795 39.99C72.795 50.665 72.755 51.935 72.56 56.15C72.385 60.05 71.73 62.165 71.185 63.575C70.5392 65.3095 69.5162 66.8789 68.19 68.17C66.79 69.57 65.46 70.435 63.59 71.16C62.19 71.71 60.07 72.36 56.165 72.54C51.95 72.73 50.685 72.775 40.005 72.775C29.325 72.775 28.055 72.73 23.84 72.54C19.94 72.36 17.825 71.71 16.415 71.16C14.6792 70.5163 13.108 69.495 11.815 68.17C10.4864 66.878 9.46164 65.3068 8.815 63.57C8.27 62.165 7.615 60.045 7.44 56.145C7.25 51.93 7.21 50.665 7.21 39.98C7.21 29.295 7.25 28.04 7.44 23.825C7.62 19.925 8.27 17.805 8.82 16.395C9.545 14.53 10.415 13.195 11.815 11.795C13.215 10.395 14.545 9.53 16.415 8.805C17.825 8.255 19.94 7.605 23.84 7.425C27.53 7.255 28.96 7.205 36.415 7.2V7.21ZM61.355 13.85C60.7247 13.85 60.1005 13.9742 59.5181 14.2154C58.9358 14.4566 58.4066 14.8102 57.9609 15.2559C57.5152 15.7016 57.1616 16.2308 56.9204 16.8131C56.6792 17.3955 56.555 18.0197 56.555 18.65C56.555 19.2803 56.6792 19.9045 56.9204 20.4869C57.1616 21.0692 57.5152 21.5984 57.9609 22.0441C58.4066 22.4898 58.9358 22.8434 59.5181 23.0846C60.1005 23.3258 60.7247 23.45 61.355 23.45C62.628 23.45 63.8489 22.9443 64.7491 22.0441C65.6493 21.1439 66.155 19.923 66.155 18.65C66.155 17.377 65.6493 16.1561 64.7491 15.2559C63.8489 14.3557 62.628 13.85 61.355 13.85ZM40.005 19.46C37.2804 19.4175 34.5745 19.9174 32.0449 20.9307C29.5153 21.944 27.2126 23.4504 25.2708 25.3621C23.3289 27.2739 21.7868 29.5528 20.7342 32.0663C19.6816 34.5798 19.1395 37.2775 19.1395 40.0025C19.1395 42.7275 19.6816 45.4252 20.7342 47.9387C21.7868 50.4522 23.3289 52.7311 25.2708 54.6429C27.2126 56.5546 29.5153 58.061 32.0449 59.0743C34.5745 60.0876 37.2804 60.5875 40.005 60.545C45.3977 60.4609 50.5411 58.2596 54.3249 54.4163C58.1087 50.5729 60.2295 45.3959 60.2295 40.0025C60.2295 34.6091 58.1087 29.4321 54.3249 25.5887C50.5411 21.7454 45.3977 19.5441 40.005 19.46ZM40.005 26.665C41.7562 26.665 43.4902 27.0099 45.1081 27.6801C46.726 28.3502 48.196 29.3325 49.4343 30.5707C50.6725 31.809 51.6548 33.279 52.3249 34.8969C52.9951 36.5148 53.34 38.2488 53.34 40C53.34 41.7512 52.9951 43.4852 52.3249 45.1031C51.6548 46.721 50.6725 48.191 49.4343 49.4293C48.196 50.6675 46.726 51.6498 45.1081 52.3199C43.4902 52.9901 41.7562 53.335 40.005 53.335C36.4683 53.335 33.0765 51.9301 30.5757 49.4293C28.0749 46.9285 26.67 43.5367 26.67 40C26.67 36.4633 28.0749 33.0715 30.5757 30.5707C33.0765 28.0699 36.4683 26.665 40.005 26.665Z" fill="black"/>
</svg>
