<svg width="13" height="13" viewBox="0 0 13 13" fill="none" xmlns="http://www.w3.org/2000/svg">
<path d="M6.5 0C4.73606 0 4.51425 0.008125 3.82119 0.039C3.12813 0.0715 2.65606 0.180375 2.2425 0.34125C1.8085 0.504015 1.41549 0.760011 1.09119 1.09119C0.760011 1.41549 0.504015 1.8085 0.34125 2.2425C0.180375 2.65525 0.0706875 3.12812 0.039 3.81875C0.008125 4.51344 0 4.73444 0 6.50081C0 8.26556 0.008125 8.48656 0.039 9.17963C0.0715 9.87188 0.180375 10.3439 0.34125 10.7575C0.507812 11.1849 0.729625 11.5473 1.09119 11.9088C1.45194 12.2704 1.81431 12.493 2.24169 12.6587C2.65606 12.8196 3.12731 12.9293 3.81956 12.961C4.51344 12.9919 4.73444 13 6.5 13C8.26556 13 8.48575 12.9919 9.17963 12.961C9.87106 12.9285 10.3447 12.8196 10.7583 12.6587C11.192 12.4959 11.5847 12.2399 11.9088 11.9088C12.2704 11.5473 12.4922 11.1849 12.6587 10.7575C12.8188 10.3439 12.9285 9.87188 12.961 9.17963C12.9919 8.48656 13 8.26556 13 6.5C13 4.73444 12.9919 4.51344 12.961 3.81956C12.9285 3.12813 12.8188 2.65525 12.6587 2.2425C12.496 1.8085 12.24 1.41549 11.9088 1.09119C11.5845 0.760011 11.1915 0.504015 10.7575 0.34125C10.3431 0.180375 9.87025 0.0706875 9.17881 0.039C8.48494 0.008125 8.26475 0 6.49837 0H6.5ZM5.91744 1.17081C5.91744 1.17126 5.9178 1.17163 5.91825 1.17163H6.50081C8.23631 1.17163 8.44187 1.17731 9.12681 1.209C9.76056 1.23744 10.1051 1.34388 10.3342 1.43244C10.6373 1.55025 10.8542 1.69162 11.0817 1.91912C11.3092 2.14662 11.4498 2.36275 11.5676 2.66663C11.6569 2.89494 11.7626 3.23944 11.791 3.87319C11.8227 4.55813 11.8292 4.76369 11.8292 6.49837C11.8292 8.23306 11.8227 8.43944 11.791 9.12437C11.7626 9.75812 11.6561 10.1018 11.5676 10.3309C11.4626 10.6128 11.2964 10.8678 11.0809 11.0776C10.8534 11.3051 10.6372 11.4457 10.3334 11.5635C10.1059 11.6529 9.76137 11.7585 9.12681 11.7878C8.44187 11.8186 8.23631 11.8259 6.50081 11.8259C4.76531 11.8259 4.55894 11.8186 3.874 11.7878C3.24025 11.7585 2.89656 11.6529 2.66744 11.5635C2.38536 11.4589 2.13005 11.2929 1.91994 11.0776C1.70403 10.8677 1.53752 10.6123 1.43244 10.3301C1.34388 10.1018 1.23744 9.75731 1.209 9.12356C1.17812 8.43863 1.17163 8.23306 1.17163 6.49675C1.17163 4.76044 1.17812 4.5565 1.209 3.87156C1.23825 3.23781 1.34388 2.89331 1.43325 2.66419C1.55106 2.36112 1.69244 2.14419 1.91994 1.91669C2.14744 1.68919 2.36356 1.54862 2.66744 1.43081C2.89656 1.34144 3.24025 1.23581 3.874 1.20656C4.47349 1.17894 4.70589 1.17082 5.9166 1.17C5.91705 1.17 5.91744 1.17036 5.91744 1.17081V1.17081ZM9.97019 2.25062C9.86776 2.25062 9.76633 2.2708 9.67169 2.31C9.57706 2.3492 9.49107 2.40665 9.41864 2.47908C9.34621 2.55151 9.28876 2.6375 9.24956 2.73213C9.21036 2.82677 9.19019 2.92819 9.19019 3.03063C9.19019 3.13306 9.21036 3.23448 9.24956 3.32912C9.28876 3.42375 9.34621 3.50974 9.41864 3.58217C9.49107 3.6546 9.57706 3.71205 9.67169 3.75125C9.76633 3.79045 9.86776 3.81063 9.97019 3.81063C10.1771 3.81063 10.3755 3.72845 10.5217 3.58217C10.668 3.43589 10.7502 3.23749 10.7502 3.03063C10.7502 2.82376 10.668 2.62536 10.5217 2.47908C10.3755 2.3328 10.1771 2.25062 9.97019 2.25062ZM6.50081 3.16225C6.05806 3.15534 5.61835 3.23658 5.20729 3.40124C4.79624 3.5659 4.42204 3.81068 4.1065 4.12134C3.79095 4.43201 3.54036 4.80234 3.36931 5.21077C3.19826 5.61921 3.11017 6.0576 3.11017 6.50041C3.11017 6.94322 3.19826 7.3816 3.36931 7.79004C3.54036 8.19848 3.79095 8.56881 4.1065 8.87947C4.42204 9.19013 4.79624 9.43491 5.20729 9.59957C5.61835 9.76423 6.05806 9.84547 6.50081 9.83856C7.37713 9.82489 8.21292 9.46718 8.82779 8.84264C9.44266 8.2181 9.78729 7.37683 9.78729 6.50041C9.78729 5.62398 9.44266 4.78271 8.82779 4.15817C8.21292 3.53363 7.37713 3.17592 6.50081 3.16225ZM6.50081 4.33306C6.78538 4.33306 7.06716 4.38911 7.33006 4.49801C7.59297 4.60691 7.83185 4.76653 8.03307 4.96774C8.23429 5.16896 8.3939 5.40784 8.5028 5.67075C8.6117 5.93365 8.66775 6.21543 8.66775 6.5C8.66775 6.78457 8.6117 7.06635 8.5028 7.32925C8.3939 7.59216 8.23429 7.83104 8.03307 8.03226C7.83185 8.23347 7.59297 8.39309 7.33006 8.50199C7.06716 8.61089 6.78538 8.66694 6.50081 8.66694C5.92611 8.66694 5.37494 8.43864 4.96856 8.03226C4.56218 7.62588 4.33388 7.07471 4.33388 6.5C4.33388 5.92529 4.56218 5.37412 4.96856 4.96774C5.37494 4.56136 5.92611 4.33306 6.50081 4.33306Z" fill="white"/>
</svg>
