<svg width="7" height="12" viewBox="0 0 7 12" fill="none" xmlns="http://www.w3.org/2000/svg">
<path d="M0.957031 0C1.12279 0 1.28176 0.0658481 1.39897 0.183058C1.51618 0.300269 1.58203 0.45924 1.58203 0.625V10.625C1.58203 10.7908 1.51618 10.9497 1.39897 11.0669C1.28176 11.1842 1.12279 11.25 0.957031 11.25C0.791271 11.25 0.6323 11.1842 0.51509 11.0669C0.397879 10.9497 0.332031 10.7908 0.332031 10.625V0.625C0.332031 0.45924 0.397879 0.300269 0.51509 0.183058C0.6323 0.0658481 0.791271 0 0.957031 0ZM5.95703 0C6.12279 0 6.28176 0.0658481 6.39897 0.183058C6.51618 0.300269 6.58203 0.45924 6.58203 0.625V10.625C6.58203 10.7908 6.51618 10.9497 6.39897 11.0669C6.28176 11.1842 6.12279 11.25 5.95703 11.25C5.79127 11.25 5.6323 11.1842 5.51509 11.0669C5.39788 10.9497 5.33203 10.7908 5.33203 10.625V0.625C5.33203 0.45924 5.39788 0.300269 5.51509 0.183058C5.6323 0.0658481 5.79127 0 5.95703 0Z" fill="black"/>
</svg>
