<svg width="756" height="744" viewBox="0 0 756 744" fill="none" xmlns="http://www.w3.org/2000/svg">
<mask id="mask0_1028_262" style="mask-type:alpha" maskUnits="userSpaceOnUse" x="1" y="1" width="754" height="742">
<path d="M194.968 277.936C194.968 277.936 212.942 269.74 218.55 255.505L209.06 239.4L207.766 227.609L196.263 215.243L186.916 159.164L184.04 155.426V124.367L195.687 115.883L209.491 128.105C209.491 128.105 230.629 133.857 226.315 101.216C226.315 101.216 207.478 80.0789 226.89 66.5625C226.89 66.5625 237.818 55.3467 238.106 46.5754H263.27C263.27 46.5754 279.23 50.8892 279.518 80.0789C279.518 80.0789 290.446 81.6606 298.93 65.5559L307.27 64.2618L308.995 60.9546H313.021V62.6801C313.021 62.6801 325.675 63.6867 327.113 54.3402L354.002 41.3989V31.1897L364.211 11.2027H373.845L377.296 5.451H392.538L393.257 2L414.395 3.15033L423.453 15.3726V33.2028L417.989 36.3662L418.421 43.5558C418.421 43.5558 423.885 51.3206 421.297 58.5101L414.251 83.9613L414.682 88.8502L437.545 118.471C437.545 118.471 446.029 126.38 440.277 134.72C440.277 134.72 432.512 145.217 442.29 145.217C442.29 145.217 455.375 140.615 451.924 157.583C451.924 157.583 449.48 163.766 452.499 166.929C452.499 166.929 455.663 169.517 453.65 173.256C453.65 173.256 452.643 179.008 456.382 181.165C456.382 181.165 468.173 185.478 469.898 205.034V220.563L492.042 244.145C492.042 244.145 488.016 257.087 492.042 264.564L499.232 273.479C499.232 273.479 501.82 281.387 495.349 283.544L495.781 306.263L506.421 317.335H517.925C517.925 317.335 523.676 322.943 530.578 323.375L534.029 326.826V337.322L528.565 351.414C528.565 351.414 528.997 355.153 532.016 352.564C532.016 352.564 540.5 345.518 547.546 354.434C547.546 354.434 556.605 362.055 583.35 363.924V350.839C583.35 350.839 586.513 339.911 598.879 345.806L612.396 335.884L617.572 335.741C617.572 335.741 620.304 322.368 629.076 327.257L651.363 333.296L663.442 370.538C663.442 370.538 662.867 384.055 689.612 377.872L701.403 375.571L720.815 394.408L747.991 395.414C747.991 395.414 756.906 399.153 752.449 405.911L739.651 419.14L738.501 435.963C738.501 435.963 742.24 445.022 740.802 453.362C739.508 461.702 730.161 453.362 730.161 453.362L730.305 464.003C730.305 464.003 726.998 466.879 725.704 466.735L724.985 477.807C724.985 477.807 722.253 481.258 719.233 481.545L720.527 524.827C720.527 524.827 714.2 534.892 718.945 540.931C718.945 540.931 724.553 548.84 716.357 552.722L706.723 560.056L705.429 590.54C705.429 590.54 700.54 598.304 704.71 603.768C704.71 603.768 707.298 609.233 704.279 614.984L697.233 629.076V655.965C697.233 655.965 696.226 665.311 692.775 664.449C692.775 664.449 683.141 670.775 683.86 678.396L684.579 688.606C684.579 688.606 683.573 696.514 675.808 695.364C675.808 695.364 671.782 744.397 609.089 697.233C609.089 697.233 597.873 702.122 592.409 694.501L577.454 694.07L559.624 692.344L541.219 676.096L527.703 675.377L494.774 697.521C494.774 697.521 495.493 721.965 468.029 707.155C468.029 707.155 461.99 711.181 462.852 714.919V723.116C462.852 723.116 458.251 747.416 436.539 724.841C436.539 724.841 427.623 728.867 423.022 720.959L402.891 721.39C402.891 721.39 389.519 712.044 394.983 695.076L400.591 677.102L401.741 650.501C401.741 650.501 401.741 642.017 392.97 640.292L374.421 640.148L345.662 624.043L340.198 624.187C340.198 624.187 343.649 618.148 327.544 612.108C327.544 612.108 309.57 616.422 300.799 611.965L291.884 612.108L275.923 618.291H266.577C266.577 618.291 249.322 602.906 228.328 622.03L179.87 638.135C179.87 638.135 146.942 650.788 145.36 684.723V717.364L155.57 730.018C155.57 730.018 162.615 745.116 141.047 741.665C141.047 741.665 122.497 740.514 98.1966 718.37C98.1966 718.37 98.628 701.691 89.4254 691.769L94.8894 673.364C94.8894 673.364 97.4777 665.743 89.4254 665.599L77.922 670.2L70.3011 669.194C70.3011 669.194 64.118 660.998 57.6474 660.279L49.8826 658.409L48.0133 635.546C48.0133 635.546 38.3793 635.403 37.9479 623.468C37.9479 623.468 12.2092 602.762 4.58826 581.193V567.389L2 563.507V554.16L5.73857 527.846L21.1243 505.415L34.3531 433.663L56.0657 412.094L59.2291 387.649L78.0658 366.512C78.0658 366.512 88.275 356.878 73.4645 331.283L73.3207 305.113L84.824 292.315C84.824 292.315 97.0463 289.152 99.2032 280.093C99.2032 280.093 100.785 273.91 107.543 275.204C107.543 275.204 120.197 265.714 114.876 254.786C114.876 254.786 114.876 245.439 123.935 237.675L143.779 237.818L148.236 242.42C148.236 242.42 150.537 244.289 152.694 241.413L162.184 237.675L168.367 237.531L188.21 251.047L194.968 277.936Z" fill="#90E264" stroke="#3BAA00" stroke-miterlimit="10"/>
</mask>
<g mask="url(#mask0_1028_262)">
<path d="M622.027 456.526L672.354 296.917L777.322 341.492V497.506L760.067 585.219L681.701 562.213L622.027 456.526Z" fill="#E8D78D"/>
<path d="M340.197 401.885L333.727 376.721C339.239 372.647 350.119 363.78 349.544 360.904C348.968 358.028 381.417 359.706 397.714 360.904L420.002 407.637L371.112 422.735L340.197 401.885Z" fill="#FFF2B6"/>
<path d="M371.829 414.826C359.176 410.225 340.195 391.819 332.286 383.192L314.312 391.819L325.816 432.081L358.888 430.643L371.829 414.826Z" fill="#FFF2B6"/>
<path d="M331.577 422.015L333.734 382.473H302.818L296.348 414.826L313.603 434.238L331.577 422.015Z" fill="#FFF2B6"/>
<path d="M322.939 396.852C326.965 403.754 314.071 406.917 307.122 407.636L251.762 391.1L263.984 338.616L319.344 341.492L336.599 376.721L332.285 393.976C324.808 389.95 322.939 394.216 322.939 396.852Z" fill="#FFF2B6"/>
<path d="M335.161 388.943C318.481 382.041 314.312 372.647 314.312 368.812L304.246 335.74L318.625 314.171H371.828L349.54 349.4L338.037 391.1L335.161 388.943Z" fill="#FFF2B6"/>
<path d="M333.008 407.636C330.707 413.388 321.025 414.347 316.472 414.107L292.746 420.577L247.452 415.545L225.883 470.905L247.452 514.042L340.197 526.983L376.145 462.277L333.008 407.636Z" fill="#E1D396"/>
<path d="M353.141 460.12C360.043 477.375 349.306 493.671 343.075 499.663L335.887 526.983L381.181 546.395L420.724 521.95L436.541 470.185L432.227 434.237L414.253 381.753L376.149 402.603C374.423 405.479 370.157 404.76 368.24 404.041C361.338 407.492 356.737 405.479 355.299 404.041L350.266 409.074L345.233 406.917L338.763 413.388L340.201 418.42L334.447 424.172V428.486C331.571 430.211 333.249 433.998 334.447 435.675C338.473 433.375 341.877 436.634 343.075 438.551C341.925 442.002 345.951 441.427 348.108 440.708L353.141 450.054V460.12Z" fill="#EBDB96"/>
<path d="M341.633 338.617L343.071 324.957L349.541 314.892L404.901 322.8L386.927 376.003H358.888C354.862 371.402 345.707 376.482 341.633 379.598V363.781C346.809 351.127 343.79 341.733 341.633 338.617Z" fill="#FFF2B6"/>
<path d="M391.238 491.035C394.689 507.14 382.611 521.232 376.14 526.264L363.918 555.023L386.925 604.631L459.539 560.056L539.344 526.264L557.318 475.937L515.618 470.186L499.801 456.525L494.768 458.682C491.893 451.78 488.777 455.807 487.579 458.682L478.951 454.369V450.055L471.043 447.898V439.989C469.892 434.238 462.895 434.717 459.539 435.676C457.814 448.329 449.714 446.22 445.879 443.584C449.33 446.46 444.441 455.807 441.565 460.12L445.879 463.715V470.186C445.304 485.14 435.095 482.648 430.062 479.532C422.01 491.035 412.807 489.598 409.212 487.441V483.127L403.461 487.441C391.957 475.362 390.519 484.804 391.238 491.035Z" fill="#ECD983"/>
<path d="M367.516 376.721L373.986 344.368L425.032 299.793L488.301 257.374H614.837L611.962 386.787L563.072 483.846L494.052 495.349L432.222 486.722C432.222 473.493 421.677 465.393 416.405 462.996V456.526L407.777 447.898L405.62 441.427C403.32 437.401 404.662 429.684 405.62 426.329L402.026 422.016L404.183 419.14L400.588 409.793L402.026 391.819H390.522L367.516 376.721Z" fill="#FAE68F"/>
<path d="M706.14 567.964C714.767 584.069 707.817 594.326 703.264 597.442L687.447 635.547L517.773 576.592L506.27 533.454L523.526 501.82C517.774 491.467 521.13 481.689 523.526 478.095C512.023 476.944 512.023 471.864 513.461 469.467C531.866 468.892 532.633 458.683 530.716 453.65L555.879 417.702L548.69 409.794L545.814 392.538C552.716 389.087 548.69 382.473 545.814 379.597L548.69 368.813L576.729 301.95L683.135 318.486L658.689 401.885C665.591 404.761 660.127 413.628 656.532 417.702C664.583 424.604 663.722 433.04 662.285 436.395L656.532 441.428L658.689 457.245C643.16 461.271 646.467 470.905 650.061 475.219C656.963 475.794 657.251 484.086 656.532 488.16C666.31 492.761 668.275 501.581 668.035 505.415L678.1 514.761C672.924 519.363 684.091 534.892 690.322 542.082C697.8 547.258 703.983 561.494 706.14 567.964Z" fill="#FFF5C6"/>
<path d="M410.654 572.278C404.902 581.481 397.234 579.468 394.118 577.311L337.32 616.854L353.137 746.266L451.635 772.868L522.812 741.953L545.818 661.429C537.191 659.704 542.224 644.414 545.818 636.985V608.226C556.746 598.448 553.248 593.128 550.132 591.69C539.779 589.965 539.108 581.385 540.067 577.311C546.393 577.311 546.537 565.328 545.818 559.337L526.406 544.239V526.265L522.812 516.2C527.988 511.023 524.969 504.457 522.812 501.82L487.583 512.605C477.805 506.853 471.526 512.605 469.609 516.2C471.334 523.677 463.138 528.901 458.824 530.579C453.073 527.703 451.635 531.777 451.635 534.173C450.484 538.2 441.569 538.727 437.256 538.487C426.327 533.886 426.471 544.718 427.909 550.71C430.21 557.612 424.075 564.13 420.72 566.527C410.942 565.951 409.935 570.121 410.654 572.278Z" fill="#E1D496"/>
<path d="M553.01 550.709C544.383 548.983 544.623 556.7 545.821 560.774L495.493 571.559L453.793 690.187L583.924 761.364L739.22 771.429L757.193 585.938C695.651 606.069 673.555 600.557 670.199 595.284C670.775 578.604 665.646 574.914 663.01 575.153H652.944C647.768 553.297 643.119 552.626 641.441 555.023C635.689 555.598 632.814 550.469 632.095 547.833C624.042 561.062 610.526 566.766 604.774 567.964L588.238 560.774C573.284 560.774 566.19 554.064 564.513 550.709C557.611 539.781 553.969 546.155 553.01 550.709Z" fill="#EFE3AB"/>
<path d="M288.432 491.755L263.268 478.094H219.412L133.856 438.552L105.816 532.735L146.078 667.9H196.405L363.204 679.403L401.308 627.638C412.237 623.037 405.862 613.738 401.308 609.664C405.797 608.628 403.774 593.552 400.092 577.311C397.641 566.495 394.453 555.162 391.962 547.115C391.483 554.304 390.812 563.507 391.962 542.801C393.112 522.095 386.21 518.835 382.615 519.794L363.204 525.546C351.125 520.369 345.23 500.862 343.792 491.755H318.628C308.85 498.657 304.489 485.524 303.53 478.094L288.432 491.755Z" fill="#F3E4A2"/>
<path d="M161.176 519.075C151.398 506.421 152.309 494.63 153.986 490.317L69.1499 345.087L-23.5958 410.512L-30.0664 615.415L143.922 782.933L194.249 737.638L161.176 619.01L153.986 607.507C171.241 590.827 161.176 577.071 153.986 572.278C164.914 557.324 163.332 536.33 161.176 527.702V519.075Z" fill="#FFE675"/>
<path d="M568.102 225.74L496.925 294.76C476.794 288.433 464.093 307.461 460.258 317.766C463.134 329.845 459.06 332.865 456.663 332.865C471.043 349.544 455.944 360.904 446.598 364.499C443.722 351.845 433.896 362.102 429.343 368.813C420.715 354.433 419.038 362.821 419.278 368.813C403.173 376.29 396.271 365.697 394.833 359.466C385.63 362.917 377.099 354.194 373.983 349.401C369.957 335.022 353.133 327.592 345.225 325.675L354.571 302.668C370.101 288.864 361.042 272.472 354.571 266.001L324.375 255.936L367.513 127.961L568.102 225.74Z" fill="#E9D16A"/>
<path d="M198.561 267.439C208.339 269.74 216.056 259.771 218.692 254.498L223.725 225.021L251.045 181.164L413.53 173.256L399.869 267.439L355.294 321.361L332.287 334.303L314.313 370.969C303.96 354.865 293.224 357.549 289.15 360.904L281.96 357.309L272.614 370.969H261.829C249.751 361.767 239.542 370.011 235.947 375.283L223.725 365.218C227.75 330.708 215.337 321.601 208.626 321.361L198.561 306.263C176.13 295.335 189.215 275.827 198.561 267.439Z" fill="#F7ECBF"/>
<path d="M262.55 447.898C264.276 459.402 255.121 459.402 250.328 457.964L246.733 469.467L198.563 447.898L197.125 376.721L223.008 347.244L270.459 355.153C268.733 370.682 282.681 385.589 289.871 391.101C305.4 395.127 309.762 397.571 310.002 398.29V404.761L318.629 413.388C322.655 422.016 316.951 429.445 313.596 432.081V444.304C319.923 446.029 316.232 449.816 313.596 451.493L305.688 453.65C303.962 450.199 301.614 452.212 300.655 453.65C297.204 458.251 293.945 456.526 292.747 455.088L281.962 449.336C280.237 446.46 276.929 447.179 275.491 447.898C272.616 450.199 270.938 448.857 270.459 447.898C267.008 439.846 263.749 444.543 262.55 447.898Z" fill="#FFE46C"/>
<path d="M88.5649 433.519C100.068 420.865 93.358 410.512 88.5649 406.917L63.4014 365.218L53.3359 276.786L202.16 259.531L243.141 335.021L223.01 374.564C212.082 382.616 218.457 401.885 223.01 410.512L212.226 419.14L230.919 440.708L236.67 446.46L254.644 455.806V468.748L262.553 475.937C260.827 491.467 248.893 497.746 243.141 498.944L236.67 519.075L223.01 522.67C227.612 544.526 201.441 525.545 187.781 513.323V506.134L168.369 498.944L157.585 487.441L148.238 495.349C140.761 497.075 129.306 490.796 124.513 487.441L118.761 461.558C123.363 446.604 116.844 441.427 113.01 440.708L88.5649 433.519Z" fill="#ECD983"/>
<path d="M179.868 310.577L187.058 291.165H226.604L221.572 174.693L28.8906 240.119V381.035L87.1263 406.198L105.1 386.786H114.445C109.844 372.982 116.363 366.655 120.197 365.217C120.772 343.936 136.252 351.557 143.92 358.028C143.345 344.799 150.87 346.285 154.705 348.681L171.96 329.269L165.489 318.485L179.868 310.577Z" fill="#FFEEA0"/>
<path d="M394.838 223.583C379.884 237.962 365.6 225.74 360.328 217.831L334.445 199.138L266.863 110.706L353.857 -39.556L486.865 -50.3403L587.519 241.557L471.048 258.093C455.518 248.89 450.677 250.424 450.198 252.341C437.544 240.263 431.025 247.309 429.348 252.341C428.773 244.289 420.481 241.797 416.407 241.557C413.531 226.603 400.829 223.343 394.838 223.583Z" fill="#FFEBB7"/>
<path d="M245.292 259.531C238.965 249.178 224.921 252.821 218.69 255.936L196.402 245.152L142.48 181.165L187.056 21.556L280.521 -16.5488C305.444 -10.0782 354.573 3.43822 351.697 5.73889C348.822 8.03956 352.896 50.3143 355.292 71.1641C363.345 78.0661 361.523 100.402 359.606 110.707C347.527 114.158 354.573 129.879 359.606 137.308C371.109 139.034 368.233 147.134 365.358 150.969C354.429 160.171 360.804 164.389 365.358 165.348C356.73 168.799 357.928 203.213 359.606 219.989L365.358 245.152C344.652 245.152 356.73 272.473 365.358 286.133L345.227 296.198C340.625 287.571 334.682 289.728 332.286 291.884C317.187 281.1 320.782 290.447 316.468 286.133C313.017 282.682 303.048 284.695 298.494 286.133L280.521 265.283C264.991 265.283 255.357 256.655 252.481 252.342L245.292 259.531Z" fill="#EEDF9C"/>
</g>
<path d="M195.046 277.87C195.046 277.87 213.027 269.676 218.638 255.444L209.143 239.343L207.849 227.555L196.341 215.192L186.991 159.127L184.114 155.389V124.337L195.765 115.856L209.575 128.075C209.575 128.075 230.721 133.825 226.405 101.193C226.405 101.193 207.561 80.0602 226.981 66.547C226.981 66.547 237.913 55.3339 238.201 46.5648H263.375C263.375 46.5648 279.342 50.8775 279.63 80.0602C279.63 80.0602 290.562 81.6415 299.05 65.5407L307.393 64.2469L309.119 60.9405H313.147V62.6656C313.147 62.6656 325.806 63.6719 327.244 54.3276L354.144 41.3895V31.1827L364.357 11.2005H373.995L377.448 5.45017H392.696L393.415 2L414.561 3.15006L423.623 15.3694V33.1953L418.157 36.358L418.589 43.5459C418.589 43.5459 424.055 51.3087 421.466 58.4966L414.417 83.9416L414.849 88.8294L437.721 118.443C437.721 118.443 446.208 126.35 440.454 134.688C440.454 134.688 432.686 145.182 442.468 145.182C442.468 145.182 455.558 140.582 452.106 157.545C452.106 157.545 449.66 163.727 452.681 166.89C452.681 166.89 455.846 169.477 453.832 173.215C453.832 173.215 452.825 178.965 456.565 181.122C456.565 181.122 468.361 185.434 470.087 204.985V220.511L492.24 244.087C492.24 244.087 488.212 257.025 492.24 264.501L499.432 273.414C499.432 273.414 502.021 281.32 495.548 283.477L495.98 306.19L506.625 317.26H518.133C518.133 317.26 523.887 322.866 530.791 323.298L534.244 326.748V337.242L528.777 351.33C528.777 351.33 529.209 355.068 532.23 352.48C532.23 352.48 540.717 345.436 547.766 354.349C547.766 354.349 556.828 361.968 583.584 363.837V350.755C583.584 350.755 586.749 339.83 599.12 345.724L612.642 335.804L617.82 335.661C617.82 335.661 620.554 322.291 629.328 327.179L651.625 333.217L663.708 370.45C663.708 370.45 663.133 383.963 689.889 377.781L701.685 375.481L721.104 394.314L748.292 395.32C748.292 395.32 757.211 399.058 752.751 405.814L739.949 419.04L738.798 435.859C738.798 435.859 742.538 444.916 741.099 453.254C739.805 461.592 730.455 453.254 730.455 453.254L730.599 463.892C730.599 463.892 727.29 466.767 725.995 466.624L725.276 477.693C725.276 477.693 722.543 481.143 719.522 481.431L720.817 524.701C720.817 524.701 714.487 534.765 719.234 540.802C719.234 540.802 724.845 548.709 716.645 552.59L707.007 559.922L705.713 590.399C705.713 590.399 700.822 598.161 704.993 603.624C704.993 603.624 707.583 609.087 704.562 614.837L697.513 628.925V655.808C697.513 655.808 696.506 665.152 693.054 664.29C693.054 664.29 683.416 670.615 684.135 678.234L684.854 688.441C684.854 688.441 683.847 696.348 676.08 695.198C676.08 695.198 672.052 744.219 609.333 697.066C609.333 697.066 598.113 701.954 592.647 694.335L577.686 693.904L559.849 692.179L541.436 675.934L527.914 675.215L494.973 697.354C494.973 697.354 495.692 721.793 468.217 706.986C468.217 706.986 462.175 711.011 463.038 714.749V722.943C463.038 722.943 458.435 747.238 436.714 724.668C436.714 724.668 427.795 728.693 423.192 720.786L403.053 721.218C403.053 721.218 389.675 711.873 395.141 694.91L400.751 676.94L401.902 650.345C401.902 650.345 401.902 641.864 393.127 640.139L374.571 639.995L345.801 623.894L340.334 624.038C340.334 624.038 343.787 618 327.676 611.962C327.676 611.962 309.694 616.275 300.92 611.818L292.001 611.962L276.034 618.144H266.683C266.683 618.144 249.421 602.762 228.419 621.881L179.942 637.982C179.942 637.982 147 650.633 145.418 684.56V717.192L155.631 729.843C155.631 729.843 162.68 744.938 141.103 741.487C141.103 741.487 122.546 740.337 98.2354 718.199C98.2354 718.199 98.667 701.523 89.4606 691.604L94.9269 673.203C94.9269 673.203 97.5162 665.584 89.4606 665.44L77.9526 670.04L70.3286 669.034C70.3286 669.034 64.143 660.84 57.6698 660.121L49.9019 658.252L48.0319 635.395C48.0319 635.395 38.394 635.251 37.9624 623.319C37.9624 623.319 12.2133 602.618 4.5893 581.054V567.254L2 563.372V554.028L5.74008 527.72L21.132 505.294L34.3662 433.559L56.0875 411.996L59.2522 387.557L78.0965 366.425C78.0965 366.425 88.3098 356.793 73.4933 331.204L73.3494 305.04L84.8574 292.246C84.8574 292.246 97.0846 289.083 99.2423 280.027C99.2423 280.027 100.825 273.845 107.586 275.139C107.586 275.139 120.244 265.651 114.922 254.725C114.922 254.725 114.922 245.381 123.985 237.618L143.836 237.762L148.295 242.362C148.295 242.362 150.597 244.231 152.754 241.356L162.249 237.618L168.434 237.474L188.285 250.988L195.046 277.87Z" stroke="#C9BF92" stroke-width="3" stroke-miterlimit="10"/>
</svg>
