<svg width="47" height="47" viewBox="0 0 47 47" fill="none" xmlns="http://www.w3.org/2000/svg">
<circle cx="23.5" cy="23.5" r="23.5" fill="#FF9268"/>
<path d="M19.7539 11.6465C18.7792 11.895 18.1836 12.636 18.1836 13.6075C18.1836 15.1799 19.7043 16.7614 21.4055 16.9512C22.1681 17.0415 22.845 16.8382 23.3324 16.3818C23.7385 16.0023 23.9145 15.564 23.9145 14.9269C23.9145 14.4841 23.8468 14.1904 23.6527 13.7747C23.2015 12.8123 22.317 12.0441 21.2747 11.7143C20.864 11.5878 20.1195 11.5516 19.7539 11.6465ZM20.9091 12.4372C21.4732 12.5818 21.938 12.8484 22.3892 13.2957C22.7006 13.603 22.8134 13.7521 22.9398 14.0187C23.0797 14.3169 23.2241 14.9043 23.1699 14.9585C23.1609 14.9676 23.0255 14.9179 22.8676 14.841C22.5472 14.6919 22.2448 14.5925 21.4236 14.3621C20.5346 14.1136 20.0292 13.8244 19.4336 13.2144L19.1267 12.9026L19.3523 12.6993C19.7359 12.3559 20.2503 12.2655 20.9091 12.4372ZM19.5915 14.3711C19.8983 14.5971 20.3451 14.8456 20.6203 14.945C20.7332 14.9856 21.1077 15.0896 21.4552 15.1754C22.0959 15.3336 22.8946 15.6634 22.8631 15.7538C22.8405 15.8351 22.4299 16.0927 22.2539 16.1424C21.9696 16.2192 21.4281 16.1966 21.0896 16.0927C20.0969 15.7899 19.3388 15.0941 19.0365 14.2039C18.9101 13.838 18.9282 13.8018 19.1448 14.0051C19.2485 14.1 19.4516 14.2672 19.5915 14.3711Z" fill="white"/>
<path d="M28.4926 13.9462C27.4727 14.1496 26.5432 14.7957 25.9656 15.7084C25.582 16.3139 25.4015 17.1543 25.5369 17.7282C25.8708 19.165 27.5765 19.7118 29.1875 18.903C30.7804 18.0987 31.6423 16.341 31.0647 15.0668C30.8346 14.5653 30.4329 14.2173 29.8553 14.023C29.4943 13.8965 28.9032 13.8649 28.4926 13.9462ZM29.5214 14.7189C29.8102 14.7957 30.099 14.9674 30.2073 15.1301C30.275 15.2385 30.2705 15.2475 29.923 15.6C29.3003 16.219 28.8039 16.4856 27.748 16.7567C27.3915 16.8471 26.9312 16.9917 26.7327 17.0775C26.5341 17.1634 26.3446 17.2447 26.3175 17.2582C26.2183 17.2989 26.2499 16.9194 26.3672 16.585C26.674 15.7129 27.6081 14.9448 28.6279 14.7189C28.9935 14.6375 29.2146 14.6375 29.5214 14.7189ZM30.4329 16.3546C30.3653 16.7341 30.099 17.186 29.7155 17.5655C29.0927 18.18 28.4023 18.4963 27.6578 18.5053C27.2426 18.5053 26.9764 18.424 26.674 18.189C26.5251 18.0761 26.5206 18.0671 26.6018 18.0038C26.8049 17.8502 27.3148 17.6604 28.0142 17.4751C28.4249 17.3667 28.8806 17.2266 29.025 17.1634C29.3454 17.0233 29.7967 16.7251 30.1622 16.4178C30.3066 16.2913 30.4375 16.1874 30.4465 16.1874C30.4555 16.1874 30.451 16.2642 30.4329 16.3546Z" fill="white"/>
<path d="M16.405 20.1681C15.8184 20.3715 15.3446 20.8504 15.1821 21.4062L15.128 21.5869L14.0946 21.614C13.4719 21.6321 12.9891 21.6637 12.8808 21.6954C12.1046 21.9394 11.4458 22.6668 11.2833 23.4531C11.2111 23.81 11.2202 24.8764 11.3014 25.2198C11.4909 26.024 12.1181 26.6702 12.9439 26.9142C13.138 26.9684 13.4042 26.9865 14.1533 26.9865H15.1144V27.1537C15.1144 27.2485 15.146 27.5287 15.1821 27.7772C15.7146 31.3377 18.4492 34.0759 22.0186 34.6317C22.2983 34.6724 23.0339 34.6904 24.7712 34.6904C27.0545 34.6904 27.1583 34.6859 27.6818 34.5865C30.6104 34.0262 32.9794 31.9748 33.909 29.1915C34.3061 27.9986 34.3467 27.5151 34.3287 24.2076C34.3151 21.6999 34.3106 21.5282 34.2294 21.3384C33.9812 20.751 33.539 20.3308 32.9975 20.1636C32.7087 20.0733 32.5914 20.0733 24.6855 20.0733C16.7435 20.0778 16.6667 20.0778 16.405 20.1681ZM32.7989 20.9092C33.0742 21.0041 33.2682 21.1712 33.4171 21.4378L33.548 21.6773V24.5465C33.548 27.1085 33.539 27.4609 33.4668 27.8314C33.2412 29.0198 32.8215 30.0048 32.1266 30.9717C31.8152 31.41 30.8947 32.3047 30.4344 32.6165C29.3739 33.3394 28.2323 33.7687 27.0184 33.8997C26.31 33.972 22.894 33.9584 22.2577 33.8771C20.8002 33.6873 19.4871 33.0954 18.368 32.1285C17.1992 31.1209 16.3554 29.684 16.0215 28.1477C15.868 27.4338 15.8274 26.5843 15.8455 24.0721C15.859 21.4785 15.85 21.5779 16.1568 21.2255C16.2426 21.1306 16.4095 21.0041 16.5359 20.9498L16.7615 20.8414H24.6855C31.5219 20.8414 32.6365 20.8504 32.7989 20.9092ZM15.0693 22.7617V23.1458H14.239C13.7607 23.1458 13.3501 23.1684 13.2779 23.1955C13.0883 23.2633 12.8627 23.5028 12.8131 23.688C12.7905 23.7739 12.7679 24.0676 12.7679 24.3387C12.7679 24.9487 12.8492 25.161 13.147 25.3372C13.3365 25.4457 13.3636 25.4502 14.2029 25.4502H15.0693V25.8388V26.2229L14.0901 26.2093C13.1154 26.1957 13.1064 26.1957 12.8672 26.0692C12.5513 25.9021 12.2896 25.6309 12.1407 25.3192C12.0279 25.0752 12.0234 25.0345 12.0234 24.298C12.0234 23.4169 12.064 23.2768 12.4069 22.9018C12.8266 22.4454 13.0342 22.3867 14.1804 22.3822L15.0693 22.3777V22.7617ZM15.0693 24.298V24.6821H14.3022H13.5351V24.298V23.9139H14.3022H15.0693V24.298Z" fill="white"/>
<path d="M16.8194 26.2858C16.6615 26.3716 16.6299 26.4846 16.6434 26.9183C16.6705 28.0931 17.1308 29.4125 17.8618 30.4382C18.1912 30.9081 18.8771 31.5949 19.3419 31.9248C20.3663 32.6522 21.5395 33.0679 22.8165 33.1583L23.2768 33.1899L23.4122 33.0499C23.6875 32.7742 23.5295 32.4083 23.1369 32.4083C22.8391 32.4083 22.2164 32.3224 21.8057 32.2275C19.8789 31.7711 18.2679 30.2665 17.6678 28.3507C17.5189 27.8762 17.4151 27.2843 17.4151 26.9183C17.4151 26.5569 17.3474 26.3671 17.1849 26.2858C17.0315 26.2044 16.9729 26.2044 16.8194 26.2858Z" fill="white"/>
</svg>
