<svg width="47" height="47" viewBox="0 0 47 47" fill="none" xmlns="http://www.w3.org/2000/svg">
<circle cx="23.5" cy="23.5" r="23.5" fill="#A374C8"/>
<path d="M17.57 13.7175C16.3331 14.0475 15.426 14.4552 14.5189 15.0959C13.9829 15.4842 13.6324 15.5618 12.313 15.5618C9.96289 15.5618 10.1072 14.9794 10.1072 24.0458C10.1072 31.4232 10.1278 31.695 10.5195 32.0639C10.9318 32.4521 11.1998 32.4521 23.3011 32.4521C35.4024 32.4521 35.6704 32.4521 36.0827 32.0639C36.4744 31.695 36.495 31.4232 36.495 24.0458C36.495 17.4644 36.4537 16.3578 36.1651 15.9889C36.0002 15.756 35.7322 15.5618 35.5673 15.5618C35.423 15.5618 35.2374 15.3094 35.155 14.9794C34.9488 14.0863 34.351 13.8145 32.5574 13.8145C30.7639 13.8145 29.898 14.2416 29.898 15.0959C29.898 15.5618 29.8774 15.5618 27.7746 15.5618C25.7131 15.5618 25.6306 15.5424 24.7854 14.96C22.8888 13.6398 19.8377 13.1156 17.57 13.7175ZM21.1365 14.4164C21.8168 14.5329 22.7445 14.8241 23.198 15.0376L24.0226 15.4647L21.8992 15.523C20.7448 15.5424 18.8481 15.5424 17.6731 15.523L15.5703 15.4647L16.2918 15.0959C16.9515 14.7464 18.7863 14.2611 19.6109 14.2222C19.7758 14.2028 20.4768 14.2999 21.1365 14.4164ZM33.8974 14.7076C34.083 14.7658 34.2273 14.9988 34.2273 15.1929C34.2273 15.523 34.0624 15.5618 32.5987 15.5618C30.9288 15.5618 30.4959 15.3871 30.9288 14.8823C31.1968 14.5911 33.2377 14.4746 33.8974 14.7076ZM35.5467 16.649C35.6085 16.8237 35.6704 20.163 35.6704 24.0846C35.6704 29.3653 35.6085 31.2679 35.423 31.4426C35.0725 31.7727 11.5297 31.7727 11.1792 31.4426C10.9937 31.2679 10.9318 29.3653 10.9318 24.0846C10.9318 20.163 10.9937 16.8237 11.0555 16.649C11.1792 16.3772 12.4367 16.3384 23.3011 16.3384C34.1654 16.3384 35.423 16.3772 35.5467 16.649Z" fill="white"/>
<path d="M12.4184 17.4257C11.9648 17.7169 11.9648 17.7364 11.9648 23.9101C11.9648 30.5885 11.9648 30.5497 13.0575 30.8021C13.3048 30.8603 16.8301 30.8992 20.8707 30.8603C27.612 30.8021 28.2717 30.7633 28.6015 30.4526C28.9314 30.142 28.9726 29.5596 29.0344 24.1042L29.0963 18.0858L28.5809 17.6005L28.0655 17.1151H20.479C13.9439 17.1151 12.8101 17.1539 12.4184 17.4257ZM27.7151 18.0082C28.0037 18.1052 28.0449 18.8236 28.0449 24.046V29.9479L27.0966 29.8896L26.1483 29.8314L24.7258 26.7251C23.9218 25.0167 23.1797 23.5412 23.0766 23.4247C22.788 23.1335 22.4375 23.6189 21.3655 25.8515C20.8295 26.9775 20.3141 27.9676 20.2316 28.0453C20.1492 28.1229 19.3864 26.7445 18.5618 24.9779C17.4898 22.7646 16.9332 21.7745 16.7064 21.7745C16.459 21.7745 15.923 22.8423 14.7479 25.5991C13.8615 27.7152 13.0575 29.5208 12.975 29.6178C12.8719 29.7343 12.7895 27.2299 12.7895 23.9683C12.7895 19.4642 12.8513 18.1052 13.0575 18.0276C13.4285 17.8723 27.3234 17.8723 27.7151 18.0082ZM18.6236 27.1522L19.9636 29.9285H16.9126H13.8615L14.9953 27.2493C15.6138 25.7932 16.2735 24.2789 16.4384 23.9101L16.7476 23.2306L17.0156 23.813C17.1806 24.1236 17.9021 25.6379 18.6236 27.1522ZM24.1073 27.4629C24.6846 28.7248 25.1587 29.7926 25.1587 29.8508C25.1587 29.8896 24.1898 29.9285 23.0147 29.9285C21.3036 29.9285 20.8501 29.8702 20.747 29.6373C20.6233 29.3072 22.7261 24.8225 22.9117 25.0361C22.9941 25.1137 23.5301 26.2009 24.1073 27.4629Z" fill="white"/>
<path d="M23.5723 19.5419C22.9126 20.1631 22.8507 20.3184 22.9538 21.0368C23.1187 22.2016 23.8815 22.8423 25.0772 22.8423C25.8812 22.8423 26.108 22.7452 26.6233 22.2016C27.9221 20.8232 26.9326 18.8624 24.9329 18.8624C24.4793 18.8624 24.0876 19.0565 23.5723 19.5419ZM25.9843 20.0661C26.5409 20.6485 26.4997 21.2697 25.8606 21.7551C25.1597 22.2793 24.8298 22.2599 24.232 21.6774C23.6135 21.1144 23.5929 20.8038 24.1495 20.1437C24.6649 19.5225 25.407 19.4836 25.9843 20.0661Z" fill="white"/>
<path d="M31.2767 18.6881C31.0912 18.7851 30.782 19.154 30.5964 19.4646C29.7924 20.9595 31.4004 22.5515 33.0497 21.8914C33.8949 21.5614 34.2247 21.076 34.2247 20.1636C34.2247 18.8628 32.5136 18.0086 31.2767 18.6881ZM33.0909 19.6394C33.6681 20.2412 33.297 21.076 32.4312 21.1537C31.3798 21.2507 30.9263 20.3189 31.6066 19.4841C31.8952 19.1346 32.6786 19.2123 33.0909 19.6394Z" fill="white"/>
<path d="M30.6384 23.2501C30.4323 23.4248 30.3086 23.8907 30.3086 24.3955C30.3086 25.5992 30.6591 25.8516 32.3495 25.8516C33.1535 25.8516 33.8338 25.7545 33.9781 25.6186C34.308 25.308 34.308 23.483 33.9781 23.1724C33.6071 22.823 31.0301 22.8618 30.6384 23.2501ZM33.4009 24.4149V25.0944L32.3289 25.0362C31.4631 24.9973 31.2157 24.9003 31.1744 24.6285C31.0301 23.9101 31.2775 23.716 32.3701 23.716H33.4009V24.4149Z" fill="white"/>
<path d="M30.6384 26.9381C30.2467 27.3069 30.1849 28.9571 30.556 29.3066C30.8858 29.6172 33.6483 29.6172 33.9781 29.3066C34.1224 29.1707 34.2255 28.6077 34.2255 28.0447C34.2255 26.8022 33.9575 26.6274 32.1846 26.6274C31.3393 26.6274 30.8652 26.7245 30.6384 26.9381ZM33.4009 28.1806C33.4009 28.763 33.3803 28.763 32.267 28.763C31.1538 28.763 31.1332 28.763 31.1332 28.1806C31.1332 27.5981 31.1538 27.5981 32.267 27.5981C33.3803 27.5981 33.4009 27.5981 33.4009 28.1806Z" fill="white"/>
</svg>
