<svg width="47" height="47" viewBox="0 0 47 47" fill="none" xmlns="http://www.w3.org/2000/svg">
<circle cx="23.5" cy="23.5" r="23.5" fill="#77C5FF"/>
<path d="M26.6329 10.7381C26.5503 10.8206 26.4883 12.0796 26.4883 13.5243C26.4883 15.6915 26.5503 16.1662 26.7982 16.2693C27.2734 16.4551 27.3354 16.1042 27.2734 13.2973C27.2114 10.9238 27.0668 10.3253 26.6329 10.7381Z" fill="white"/>
<path d="M23.6966 11.2743C23.5933 11.5426 25.0602 16.0626 25.3288 16.3309C25.4734 16.4754 26.0726 16.2483 26.0726 16.0419C26.0519 15.9594 25.6594 14.8242 25.1842 13.524C24.3577 11.2743 23.9445 10.6345 23.6966 11.2743Z" fill="white"/>
<path d="M29.6071 12.5125C28.2642 15.5671 28.0576 16.1863 28.3055 16.434C28.4708 16.5991 28.6154 16.5991 28.7394 16.4959C29.1319 16.1037 30.8467 11.8108 30.7434 11.5219C30.5162 10.944 30.1856 11.2536 29.6071 12.5125Z" fill="white"/>
<path d="M15.7419 11.5837C14.6882 11.9758 14.337 13.338 15.1221 14.1223C16.0311 15.0304 17.6013 14.3287 17.6013 13.0078C17.6013 12.0584 16.589 11.2741 15.7419 11.5837ZM16.7336 13.0284C16.7956 13.4825 16.1551 13.854 15.7419 13.6063C15.494 13.4618 15.4733 12.822 15.6799 12.595C15.9898 12.306 16.6716 12.5743 16.7336 13.0284Z" fill="white"/>
<path d="M20.2891 13.5658C20.2891 13.896 23.822 17.4253 24.1526 17.4253C24.8344 17.4253 24.5038 16.8268 22.851 15.155C21.1981 13.4419 20.2891 12.8847 20.2891 13.5658Z" fill="white"/>
<path d="M31.0913 15.0105C29.4385 16.6823 29.0046 17.4253 29.7277 17.4253C30.1823 17.4253 33.5086 14.1024 33.5086 13.6483C33.5086 12.926 32.7648 13.3594 31.0913 15.0105Z" fill="white"/>
<path d="M11.4673 14.3703C10.7442 14.7212 10.4756 15.6087 10.8681 16.3517C11.364 17.3217 12.2317 17.4868 13.1408 16.7851C13.8846 16.2072 13.8846 15.134 13.1408 14.5561C12.5416 14.0814 12.1491 14.0401 11.4673 14.3703ZM12.8515 15.6499C12.8515 16.0627 12.335 16.4136 11.9425 16.2691C11.5499 16.1246 11.4879 15.2372 11.8805 15.0927C12.2317 14.9688 12.8515 15.3197 12.8515 15.6499Z" fill="white"/>
<path d="M15.2063 15.8769C15.041 16.3103 15.2476 16.8057 15.5989 16.8057C16.0121 16.8057 16.4253 16.2484 16.2807 15.8769C16.136 15.4848 15.3509 15.4641 15.2063 15.8769Z" fill="white"/>
<path d="M18.4685 16.3312C18.5512 16.7234 23.0965 18.746 23.551 18.5602C24.1295 18.3332 23.5924 17.9204 21.5056 16.971C19.2123 15.9391 18.3446 15.7533 18.4685 16.3312Z" fill="white"/>
<path d="M32.6846 17.2805C31.135 17.8584 30.3086 18.2505 30.3086 18.4569C30.3086 18.9729 30.8458 18.8904 33.2011 18.0648C34.9366 17.4456 35.4737 17.1773 35.4737 16.8884C35.4737 16.7026 35.3911 16.4962 35.2671 16.4756C35.1638 16.4549 33.9862 16.8058 32.6846 17.2805Z" fill="white"/>
<path d="M25.9689 17.4247C24.9359 17.8374 24.1508 19.3028 24.3574 20.4173C24.502 21.1397 25.659 22.2955 26.3821 22.4193C28.4895 22.8321 30.287 20.438 29.2539 18.663C28.5515 17.4659 27.1259 16.9293 25.9689 17.4247ZM27.6011 18.3328C28.3242 18.6424 28.8407 19.6124 28.6135 20.2729C28.1589 21.5731 26.6714 21.9653 25.7623 21.0365C24.7293 20.0252 25.2871 18.4979 26.8573 18.0645C26.878 18.0438 27.2292 18.1677 27.6011 18.3328Z" fill="white"/>
<path d="M13.0507 17.9198C12.6788 18.3739 12.9474 18.9105 13.5052 18.8279C13.8564 18.7867 13.9804 18.6216 13.9804 18.2501C13.9804 17.6515 13.4432 17.4658 13.0507 17.9198Z" fill="white"/>
<path d="M17.8086 19.9016C17.8086 20.3144 17.9119 20.3144 20.5358 20.2731C22.9531 20.2112 23.2836 20.1699 23.3456 19.8397C23.4076 19.5301 23.1803 19.4888 20.6184 19.4888C17.9326 19.4888 17.8086 19.5094 17.8086 19.9016Z" fill="white"/>
<path d="M30.5363 19.6538C30.495 19.7363 30.5156 19.9427 30.5983 20.0665C30.7222 20.2523 31.4867 20.3142 33.4288 20.2729C35.6394 20.211 36.094 20.1491 36.094 19.9014C36.094 19.6538 35.6188 19.5918 33.3668 19.5299C31.8792 19.5093 30.5983 19.5506 30.5363 19.6538Z" fill="white"/>
<path d="M16.0938 20.0254C16.0112 20.108 15.9492 20.4795 15.9492 20.8716C15.9492 21.4289 16.0319 21.5527 16.3831 21.5527C16.7343 21.5527 16.7963 21.4495 16.7343 20.7891C16.6723 20.0667 16.3831 19.7365 16.0938 20.0254Z" fill="white"/>
<path d="M13.8259 20.4795C13.6399 20.7685 13.9498 21.8004 14.2391 21.9036C14.6936 22.0894 14.9002 21.5734 14.6729 20.9129C14.487 20.3557 14.0325 20.1286 13.8259 20.4795Z" fill="white"/>
<path d="M18.5549 21.1812C18.1003 21.8004 18.1417 22.1719 18.6375 22.1719C19.092 22.1719 19.5466 21.4701 19.3813 21.0161C19.216 20.6033 18.9061 20.6652 18.5549 21.1812Z" fill="white"/>
<path d="M22.4548 20.8717C20.5334 21.3464 19.3558 22.1307 20.1409 22.4403C20.5954 22.6054 23.4879 21.4702 23.5498 21.0781C23.6325 20.7272 23.3226 20.6653 22.4548 20.8717Z" fill="white"/>
<path d="M30.3491 21.0776C29.9566 21.4491 30.3904 21.7794 32.4772 22.6462C34.9358 23.6988 35.4316 23.802 35.3283 23.2654C35.287 23.0384 34.4606 22.5637 32.9937 21.9238C30.5351 20.8713 30.5351 20.8713 30.3491 21.0776Z" fill="white"/>
<path d="M11.7142 21.7797C11.5076 22.0893 11.8175 22.7704 12.2307 22.9974C12.7679 23.2864 12.9745 22.8942 12.6439 22.2751C12.334 21.7178 11.9001 21.4701 11.7142 21.7797Z" fill="white"/>
<path d="M15.9936 22.935C16.0349 23.4716 16.1589 23.7192 16.3655 23.7192C16.5721 23.7192 16.6961 23.4716 16.7374 22.935C16.7994 22.2745 16.7374 22.1713 16.3655 22.1713C15.9936 22.1713 15.9316 22.2745 15.9936 22.935Z" fill="white"/>
<path d="M22.5384 23.5341C20.8029 25.2265 20.5963 25.5361 21.0095 25.8869C21.2574 26.0933 21.5673 25.8869 22.7863 24.7312C24.5218 23.0388 24.7284 22.7292 24.3152 22.3783C24.0673 22.1719 23.7574 22.3783 22.5384 23.5341Z" fill="white"/>
<path d="M29.4421 22.502C29.3594 22.729 29.876 23.3895 31.1569 24.6691C32.9957 26.506 33.5122 26.8362 33.5122 26.1345C33.5122 25.7836 30.0412 22.1718 29.7107 22.1718C29.628 22.1718 29.5247 22.3162 29.4421 22.502Z" fill="white"/>
<path d="M14.3727 22.6672C14.2281 23.0387 14.7446 24.1532 15.0132 24.0913C15.1372 24.0706 15.2405 23.8023 15.2818 23.5134C15.3851 22.6672 14.6413 21.9861 14.3727 22.6672Z" fill="white"/>
<path d="M17.4959 23.2039C17.1447 23.885 17.2273 24.2358 17.7232 24.2358C18.095 24.2358 18.5289 23.3484 18.3636 22.9149C18.157 22.4196 17.8471 22.5228 17.4959 23.2039Z" fill="white"/>
<path d="M24.0046 25.4741C23.1575 27.3729 22.9716 28.0334 23.1369 28.1985C23.3228 28.3842 23.4468 28.3842 23.674 28.1572C24.0872 27.7238 25.8847 23.4102 25.7401 23.1832C25.4302 22.6672 24.9963 23.2244 24.0046 25.4741Z" fill="white"/>
<path d="M27.9297 23.5753C27.9297 24.3183 29.5205 28.4668 29.8098 28.4668C30.3263 28.4668 30.223 27.6825 29.4172 25.4741C28.8801 23.9675 28.5495 23.2864 28.2809 23.2451C28.0537 23.2038 27.9297 23.307 27.9297 23.5753Z" fill="white"/>
<path d="M12.9708 23.5965C12.8055 23.8442 13.6319 24.8555 14.0038 24.8555C14.417 24.8555 14.3551 24.1537 13.9212 23.7616C13.4873 23.3695 13.1361 23.3075 12.9708 23.5965Z" fill="white"/>
<path d="M19.9767 23.6167C19.8114 23.9056 20.0386 24.2358 20.4105 24.2358C20.5758 24.2358 20.6998 24.0501 20.6998 23.8231C20.6998 23.3896 20.2039 23.2452 19.9767 23.6167Z" fill="white"/>
<path d="M26.5686 23.6984C26.3827 24.1938 26.5686 24.751 26.9612 24.8129C27.2504 24.8748 27.3124 24.7304 27.3124 24.1525C27.3124 23.6159 27.2298 23.4095 27.0025 23.4095C26.8166 23.4095 26.6306 23.5333 26.5686 23.6984Z" fill="white"/>
<path d="M10.2494 24.0499C10.0634 24.3595 10.5799 24.8342 11.1998 24.8961C11.9022 24.9786 11.9849 24.3801 11.3031 24.0705C10.6419 23.7609 10.4353 23.7609 10.2494 24.0499Z" fill="white"/>
<path d="M18.5729 24.6068C18.1184 25.1021 18.1391 25.4736 18.5936 25.4736C19.0275 25.4736 19.6679 24.8751 19.6679 24.483C19.6679 24.1115 18.9448 24.194 18.5729 24.6068Z" fill="white"/>
<path d="M12.3777 24.7926C12.0678 25.0815 12.2537 25.4324 12.8735 25.6801C13.638 26.0103 14.1752 25.6801 13.6793 25.1847C13.2868 24.8339 12.5636 24.6068 12.3777 24.7926Z" fill="white"/>
<path d="M15.2622 24.9993C15.1796 25.0612 15.1176 25.3502 15.1176 25.6185C15.1176 25.8662 14.9316 26.1964 14.7044 26.3409C14.1259 26.7124 14.1879 27.0632 14.8903 27.4141C15.2209 27.5999 15.5308 27.9094 15.5928 28.1571C15.7374 28.6937 16.2746 28.6937 16.6052 28.1571C16.7704 27.9094 17.101 27.7443 17.4316 27.7443C17.8654 27.7443 18.0101 27.6411 18.0101 27.3522C18.0101 27.1252 17.9068 26.8775 17.8035 26.8156C17.6795 26.733 17.6175 26.3409 17.6382 25.9281C17.7002 25.1644 17.7002 25.1644 16.9564 25.2264C16.5225 25.2676 16.13 25.2057 16.0473 25.0819C15.9027 24.8342 15.4688 24.7929 15.2622 24.9993ZM16.6258 26.5885C16.6878 26.7537 16.6258 26.9394 16.4812 26.9807C16.1093 27.1252 15.6548 26.8156 15.8201 26.5266C16.0267 26.1964 16.5019 26.2377 16.6258 26.5885Z" fill="white"/>
<path d="M26.7571 25.4121C26.3852 25.5566 26.4059 27.249 26.7777 27.3935C27.2116 27.5586 27.3149 27.3522 27.3149 26.3822C27.3149 25.474 27.191 25.247 26.7571 25.4121Z" fill="white"/>
<path d="M9.83322 26.3201C9.62662 26.671 10.0605 26.9599 10.701 26.8774C11.0729 26.8361 11.3208 26.671 11.3621 26.444C11.4241 26.1757 11.2795 26.0931 10.701 26.0931C10.3084 26.0931 9.91587 26.1963 9.83322 26.3201Z" fill="white"/>
<path d="M12.0637 26.4439C12.105 26.7122 12.3323 26.8154 12.8488 26.8154C13.3653 26.8154 13.5926 26.7122 13.6339 26.4439C13.6959 26.155 13.5513 26.0931 12.8488 26.0931C12.1464 26.0931 12.0017 26.155 12.0637 26.4439Z" fill="white"/>
<path d="M19.1301 26.7332C18.9235 27.0841 19.3574 27.373 19.9978 27.2905C20.3697 27.2492 20.6177 27.0841 20.659 26.8571C20.721 26.5887 20.5763 26.5062 19.9978 26.5062C19.6053 26.5062 19.2127 26.6094 19.1301 26.7332Z" fill="white"/>
<path d="M12.8915 27.5585C12.2303 27.8062 12.3543 28.4873 13.0567 28.4047C13.8212 28.2809 14.1518 27.9713 13.8625 27.6204C13.5939 27.2902 13.5319 27.2902 12.8915 27.5585Z" fill="white"/>
<path d="M18.6982 28.0749C18.5329 28.5083 18.8634 28.7766 19.5659 28.8385C20.3717 28.9004 20.4336 28.4464 19.6899 28.0749C18.9254 27.6621 18.8634 27.6621 18.6982 28.0749Z" fill="white"/>
<path d="M10.9912 28.095C10.3714 28.322 10.1441 28.611 10.3714 28.8999C10.6813 29.2714 11.8589 28.8586 11.7763 28.4046C11.7143 28.0331 11.4457 27.9299 10.9912 28.095Z" fill="white"/>
<path d="M26.571 28.2399C26.3644 28.7971 26.571 29.9116 26.9016 29.9116C27.1288 29.9116 27.2321 29.6433 27.2735 28.9209C27.3148 28.1573 27.2735 27.9509 27.0049 27.9509C26.8396 27.9509 26.633 28.0747 26.571 28.2399Z" fill="white"/>
<path d="M13.3424 28.9004C13.0325 29.3544 13.0325 29.4576 13.2804 29.6021C13.5903 29.8085 14.4994 29.1068 14.4994 28.6321C14.4994 28.1574 13.6936 28.3431 13.3424 28.9004Z" fill="white"/>
<path d="M20.7629 28.9C20.5977 29.3334 21.0315 29.7668 21.3414 29.4572C21.61 29.1889 21.4447 28.5697 21.1142 28.5697C20.9902 28.5697 20.8456 28.7142 20.7629 28.9Z" fill="white"/>
<path d="M17.3322 28.9003C17.1256 29.1067 17.7867 30.2212 18.1173 30.2212C18.5925 30.2212 18.6958 29.829 18.3446 29.2924C18.014 28.7971 17.6008 28.632 17.3322 28.9003Z" fill="white"/>
<path d="M14.4637 29.7054C14.2777 30.1182 14.2777 30.2833 14.4637 30.469C14.7736 30.7786 15.2694 30.3452 15.3727 29.7054C15.476 29.0656 14.7529 29.0656 14.4637 29.7054Z" fill="white"/>
<path d="M16.0541 29.4367C15.9921 29.6018 15.9715 31.3355 15.9921 33.3169C16.0541 36.3715 16.0954 36.9287 16.364 36.9287C16.6326 36.9287 16.6739 36.3715 16.6739 33.1311C16.6739 30.2623 16.6119 29.3129 16.426 29.251C16.2814 29.1891 16.1161 29.2716 16.0541 29.4367Z" fill="white"/>
<path d="M11.9587 30.1797C11.5454 30.6338 11.5041 31.2529 11.876 31.2529C12.2686 31.2529 13.1157 30.2829 12.9504 30.0352C12.7438 29.705 12.3305 29.7669 11.9587 30.1797Z" fill="white"/>
<path d="M18.6952 30.6546C18.3647 30.9849 18.9432 32.1406 19.3977 32.0374C19.9349 31.9343 19.9349 31.5421 19.4184 30.9642C19.0465 30.5308 18.8812 30.4689 18.6952 30.6546Z" fill="white"/>
<path d="M26.5715 30.7167C26.3442 31.3152 26.5921 32.3885 26.964 32.4504C27.2533 32.5123 27.3153 32.3678 27.3153 31.4803C27.3153 30.6754 27.2326 30.4278 27.0053 30.4278C26.8194 30.4278 26.6335 30.5516 26.5715 30.7167Z" fill="white"/>
<path d="M13.5938 31.5006C13.1806 32.0785 13.1806 32.4088 13.5731 32.5739C13.9244 32.6977 14.5029 31.9753 14.5029 31.4181C14.5029 30.9021 13.9657 30.964 13.5938 31.5006Z" fill="white"/>
<path d="M26.7569 33.0488C26.5916 33.1107 26.4883 33.5235 26.4883 34.0601C26.4883 34.8238 26.5503 34.9683 26.9015 34.9683C27.2527 34.9683 27.3147 34.8238 27.3147 34.0601C27.3147 33.1107 27.1907 32.8837 26.7569 33.0488Z" fill="white"/>
<path d="M26.5699 35.8761C26.3839 36.3508 26.5699 36.9287 26.9004 36.9287C27.107 36.9287 27.231 36.681 27.2723 36.2476C27.3136 35.7523 27.2517 35.5872 27.0037 35.5872C26.8384 35.5872 26.6318 35.711 26.5699 35.8761Z" fill="white"/>
</svg>
