<svg width="47" height="47" viewBox="0 0 47 47" fill="none" xmlns="http://www.w3.org/2000/svg">
<circle cx="23.5" cy="23.5" r="23.5" fill="#8AE89F"/>
<path d="M22.9798 11.6572C22.3432 11.8286 21.8511 12.2888 21.6299 12.9205C21.5712 13.092 21.5441 13.3537 21.526 14.0395L21.4989 14.9283L21.07 15.0817C20.8352 15.1629 20.474 15.3163 20.2664 15.4156C20.0587 15.5194 19.869 15.6051 19.8374 15.6051C19.8103 15.6051 19.5124 15.3299 19.1737 14.996C18.501 14.3327 18.2798 14.1929 17.7515 14.1026C17.4039 14.044 17.0337 14.1026 16.6589 14.2696C15.7153 14.7027 15.2954 15.8578 15.7379 16.8007C15.8553 17.0624 15.9862 17.2204 16.4919 17.7257L17.0969 18.3393L16.8756 18.8131C16.7537 19.0702 16.5957 19.4583 16.528 19.6748L16.4016 20.0674L15.4489 20.0809L14.4963 20.0944L14.1576 20.2614C13.7377 20.4689 13.4443 20.7667 13.2456 21.1908C13.1102 21.4751 13.1011 21.5247 13.1011 21.9894C13.1011 22.4496 13.1102 22.5038 13.2411 22.779C13.4172 23.1445 13.6745 23.4332 13.9861 23.6227C14.3789 23.8574 14.6588 23.907 15.5844 23.907H16.3971L16.546 24.3492C16.6273 24.5883 16.7899 24.9763 16.9027 25.2064L17.1104 25.6305L16.5235 26.2216C15.8462 26.9074 15.783 26.9931 15.6566 27.3721C15.4128 28.085 15.625 28.8611 16.2074 29.398C16.6183 29.777 17.1872 29.9484 17.7425 29.8627C18.2753 29.7815 18.492 29.6461 19.1963 28.9558L19.8284 28.3377L20.009 28.4279C20.1083 28.4775 20.1986 28.5272 20.2077 28.5362C20.2167 28.5452 19.6388 29.7589 18.9254 31.2388L17.6251 33.9234H14.9252C13.0424 33.9234 12.1936 33.9369 12.1169 33.973C11.8821 34.0813 11.846 34.3656 12.0356 34.5596L12.1665 34.6904H23.4629H34.7593L34.8903 34.5596C35.0799 34.3656 35.0438 34.0813 34.809 33.973C34.7322 33.9369 33.8834 33.9234 32.0007 33.9234H29.3008L28.0005 31.2388C27.2871 29.7589 26.7092 28.5452 26.7182 28.5362C26.7272 28.5272 26.8175 28.4775 26.9169 28.4279L27.0975 28.3377L27.7296 28.9558C28.4249 29.6371 28.6461 29.777 29.1563 29.8582C30.3076 30.0432 31.3641 29.1408 31.3641 27.9677C31.3641 27.6428 31.2557 27.2232 31.1067 26.9796C31.0661 26.9164 30.7591 26.5871 30.425 26.2487L29.82 25.635L30.0186 25.2245C30.1315 24.9989 30.2895 24.6108 30.3753 24.3627L30.5288 23.907H31.3415C32.2671 23.907 32.547 23.8574 32.9398 23.6227C33.2513 23.4332 33.5087 23.1445 33.6848 22.779C33.8157 22.5038 33.8247 22.4542 33.8247 21.9849C33.8247 21.5021 33.8202 21.4796 33.6577 21.1502C33.45 20.7306 33.152 20.4373 32.7276 20.2388L32.4251 20.0944L31.4724 20.0809L30.5243 20.0674L30.3979 19.6748C30.3256 19.4583 30.1721 19.0702 30.0502 18.8131L29.829 18.3393L30.434 17.7257C30.9397 17.2204 31.0706 17.0624 31.188 16.8007C31.4499 16.2503 31.4138 15.5555 31.1067 15.0276C30.7185 14.3688 29.8787 13.9718 29.1518 14.1071C28.6325 14.2019 28.4158 14.3373 27.7521 14.996C27.4135 15.3299 27.1155 15.6051 27.0884 15.6051C27.0613 15.6051 26.8717 15.5239 26.6731 15.4201C26.4699 15.3208 26.1087 15.1674 25.8649 15.0817L25.4269 14.9283L25.3998 14.0395C25.3773 13.2905 25.3592 13.1055 25.2825 12.8889C24.9303 11.9324 23.937 11.4 22.9798 11.6572ZM23.8286 12.4242C24.0905 12.5144 24.3433 12.7265 24.4562 12.9476L24.5465 13.1236H23.4629H22.3748L22.4516 12.9747C22.6999 12.4829 23.2959 12.2437 23.8286 12.4242ZM24.6278 14.3327L24.6413 14.7523L24.244 14.7163C23.7383 14.6711 23.1875 14.6711 22.6864 14.7163L22.2891 14.7523V14.3508C22.2891 14.1297 22.3026 13.9357 22.3207 13.9176C22.3387 13.9041 22.8579 13.8951 23.481 13.8996L24.6142 13.9131L24.6278 14.3327ZM17.7877 14.8967L17.9592 14.9509L17.1917 15.7134L16.4241 16.4804L16.3745 16.345C16.2887 16.1285 16.3429 15.6457 16.4828 15.4066C16.7492 14.9554 17.2865 14.7433 17.7877 14.8967ZM29.7929 14.9012C30.2624 15.0411 30.5514 15.4111 30.583 15.9119C30.5965 16.0834 30.583 16.2729 30.5514 16.345L30.5017 16.4804L29.7342 15.7134L28.9667 14.9509L29.1382 14.8967C29.373 14.8245 29.5491 14.8245 29.7929 14.9012ZM24.0544 15.4697C26.962 15.763 29.2646 17.8204 29.8787 20.672C29.9915 21.2134 30.0367 22.188 29.969 22.7113C29.6033 25.5538 27.6393 27.7331 24.8626 28.3783C24.2937 28.5136 23.0385 28.5452 22.42 28.446C20.167 28.076 18.2437 26.5374 17.3903 24.4259C16.7131 22.7384 16.7718 20.8434 17.5529 19.174C18.1534 17.8926 19.3272 16.715 20.6185 16.0924C21.6931 15.578 22.9166 15.3569 24.0544 15.4697ZM18.8622 15.7675L19.1647 16.0698L18.8441 16.327C18.4062 16.6744 17.8915 17.2158 17.5619 17.6761C17.5393 17.7076 16.9614 17.1256 16.9614 17.0715C16.9614 17.0309 18.4965 15.4697 18.5416 15.4697C18.5507 15.4697 18.6997 15.6051 18.8622 15.7675ZM29.1834 16.2458C29.6123 16.6744 29.9645 17.0444 29.9645 17.0715C29.9645 17.1256 29.3865 17.7076 29.364 17.6761C28.9486 17.1211 28.2849 16.4398 27.9192 16.1916L27.7566 16.0788L28.0546 15.772C28.2217 15.6051 28.3707 15.4697 28.3842 15.4697C28.3933 15.4697 28.7544 15.8217 29.1834 16.2458ZM16.2029 21.0735C16.1623 21.3894 16.1623 22.5534 16.2074 22.8783L16.239 23.14H15.8101H15.3812V21.9894V20.8389H15.8101H16.2345L16.2029 21.0735ZM31.5447 21.9894V23.14H31.1158H30.6868L30.7185 22.8783C30.741 22.7384 30.7546 22.3368 30.7546 21.9894C30.7546 21.642 30.741 21.2405 30.7185 21.0961L30.6868 20.8389H31.1158H31.5447V21.9894ZM14.6136 21.9894C14.6136 22.6798 14.5956 23.0497 14.5685 23.0497C14.4737 23.0497 14.1667 22.8106 14.0538 22.6527C13.8913 22.4136 13.8461 22.2647 13.8461 21.9669C13.8461 21.633 14.0177 21.2856 14.2931 21.078C14.6227 20.8254 14.6136 20.7983 14.6136 21.9894ZM32.6328 21.078C33.2604 21.5518 33.2197 22.5534 32.5605 22.9414C32.4567 23.0001 32.3574 23.0497 32.3438 23.0497C32.3258 23.0497 32.3122 22.5715 32.3122 21.9894C32.3122 20.7983 32.3032 20.8254 32.6328 21.078ZM17.6974 26.4788C17.905 26.772 18.51 27.3857 18.8532 27.6519L19.1692 27.9L18.8667 28.2068L18.5642 28.5091L17.7515 27.697L16.9388 26.8848L17.2323 26.5916C17.3903 26.4291 17.5348 26.2983 17.5484 26.2983C17.5619 26.2983 17.6296 26.3795 17.6974 26.4788ZM29.6936 26.5916L29.987 26.8848L29.1743 27.697L28.3616 28.5091L28.0591 28.2068L27.7566 27.9L28.0727 27.6519C28.4158 27.3857 29.0208 26.772 29.2285 26.4788C29.2962 26.3795 29.364 26.2983 29.3775 26.2983C29.3911 26.2983 29.5355 26.4291 29.6936 26.5916ZM17.2278 28.2565C17.9547 28.9829 17.9637 28.9964 17.8599 29.0551C17.6928 29.1453 17.2413 29.1273 17.0066 29.019C16.7763 28.9197 16.5415 28.7031 16.4332 28.4956C16.2977 28.2339 16.3113 27.5165 16.4512 27.5165C16.4738 27.5165 16.8215 27.8504 17.2278 28.2565ZM30.5514 27.6338C30.5785 27.697 30.5965 27.8459 30.5965 27.9632C30.5965 28.6219 30.1044 29.1092 29.4452 29.1137C29.2962 29.1137 29.1247 29.0867 29.066 29.0551C28.9621 28.9964 28.9712 28.9829 29.6981 28.2565C30.1044 27.8504 30.4521 27.5165 30.4746 27.5165C30.4927 27.5165 30.5288 27.5707 30.5514 27.6338ZM21.3093 28.9648L21.5215 29.0235V29.7725C21.5215 30.6703 21.5667 30.9591 21.7789 31.3652C22.0588 31.8931 22.5374 32.236 23.1604 32.3488C23.9641 32.4976 24.831 32.0419 25.1831 31.293C25.3592 30.9095 25.4044 30.6117 25.4044 29.7499V29.028L25.6798 28.9468C25.8333 28.9017 25.9778 28.8836 25.9958 28.9017C26.0274 28.9332 28.4294 33.8693 28.4294 33.9054C28.4294 33.9144 26.1945 33.9234 23.4629 33.9234C20.7314 33.9234 18.4965 33.9189 18.4965 33.9099C18.4965 33.8918 20.6411 29.4476 20.8172 29.1047C20.9075 28.9242 20.9617 28.8656 21.0158 28.8836C21.0565 28.8972 21.1874 28.9332 21.3093 28.9648ZM23.4629 29.2762C23.8241 29.2762 24.226 29.2581 24.3569 29.2355C24.533 29.2085 24.6052 29.213 24.6188 29.2536C24.6323 29.2807 24.6368 29.4792 24.6278 29.6867L24.6142 30.0657H23.4629H22.3116L22.2981 29.6867C22.2891 29.4792 22.2936 29.2807 22.3071 29.2536C22.3207 29.213 22.3929 29.2085 22.569 29.2355C22.6999 29.2581 23.1017 29.2762 23.4629 29.2762ZM24.4472 31.0403C24.2531 31.3877 23.8873 31.5953 23.4629 31.5953C23.0385 31.5953 22.6728 31.3877 22.4787 31.0403L22.3748 30.8553H23.4629H24.551L24.4472 31.0403Z" fill="white"/>
<path d="M22.7842 16.2409C20.6351 16.489 18.7614 17.9825 18.0209 20.0264C17.5062 21.4521 17.592 23.0854 18.2467 24.4661C18.9058 25.8557 20.2377 27.0198 21.6825 27.471C22.2424 27.6424 22.6171 27.7056 23.2628 27.7282C24.5405 27.7778 25.615 27.4755 26.6896 26.7581C27.9312 25.9324 28.8026 24.624 29.1322 23.0945C29.2451 22.5575 29.2496 21.4115 29.1367 20.8836C28.7665 19.1511 27.7732 17.7975 26.2155 16.9041C25.2809 16.3717 23.931 16.11 22.7842 16.2409ZM23.0551 18.5555V20.1076L22.9332 20.1392C22.8609 20.1527 22.7119 20.2159 22.5991 20.2745L22.3914 20.3783L21.2942 19.2819L20.1971 18.1855L20.5086 17.9554C21.1633 17.4681 22.2514 17.044 22.9557 17.0079L23.0551 17.0034V18.5555ZM24.7662 17.1658C25.4074 17.3328 26.22 17.7433 26.6128 18.0998L26.7167 18.1945L25.6241 19.2864L24.5315 20.3783L24.3238 20.2745C24.2109 20.2159 24.0619 20.1527 23.9942 20.1392L23.8678 20.1076V18.551V16.9944L24.1071 17.0259C24.2335 17.0395 24.5315 17.1026 24.7662 17.1658ZM20.7705 19.8414L21.8451 20.9152L21.7638 21.0686C21.7232 21.1543 21.66 21.3032 21.6329 21.4025L21.5787 21.583L20.0346 21.5965L18.495 21.6055V21.4521C18.495 21.0551 18.7117 20.3151 19.0007 19.7331C19.1767 19.3676 19.5921 18.763 19.6598 18.763C19.6779 18.763 20.1745 19.2458 20.7705 19.8414ZM27.5249 19.0653C28.008 19.7241 28.4279 20.834 28.4279 21.4521V21.6055L26.8883 21.5965L25.3442 21.583L25.29 21.4025C25.2629 21.3032 25.1997 21.1543 25.159 21.0686L25.0778 20.9152L26.1523 19.8414C26.7483 19.2458 27.2449 18.763 27.263 18.763C27.2856 18.763 27.3984 18.8984 27.5249 19.0653ZM23.9355 20.9468C24.1838 21.0596 24.4276 21.3077 24.536 21.5559C24.6308 21.7815 24.6218 22.2191 24.5134 22.4673C24.4141 22.6929 24.1703 22.9275 23.9219 23.0313C23.6827 23.1305 23.1996 23.1215 22.9557 23.0132C22.721 22.9095 22.4546 22.6252 22.3733 22.3906C22.2966 22.1605 22.3011 21.7589 22.3869 21.5559C22.5675 21.1363 23.0099 20.8385 23.4614 20.8385C23.6285 20.8385 23.7865 20.8746 23.9355 20.9468ZM21.6329 22.5801C21.66 22.6794 21.7232 22.8282 21.7728 22.9095L21.8586 23.0493L20.775 24.1322C20.1791 24.7278 19.6779 25.215 19.6598 25.215C19.6011 25.215 19.2535 24.7142 19.0503 24.3352C18.7433 23.7532 18.495 22.9501 18.495 22.526V22.3725L20.0346 22.3816L21.5787 22.3951L21.6329 22.5801ZM28.4279 22.526C28.4279 22.9185 28.2066 23.6675 27.9312 24.2224C27.7551 24.5698 27.3217 25.215 27.263 25.215C27.2449 25.215 26.7438 24.7278 26.1523 24.1367L25.0733 23.0584L25.1952 22.8192C25.2584 22.6884 25.3125 22.5485 25.3125 22.5079C25.3125 22.4673 25.3261 22.4177 25.3442 22.4041C25.3577 22.3861 26.062 22.3725 26.9018 22.3725H28.4279V22.526ZM22.888 23.8118L23.0551 23.8705V25.4226C23.0551 26.2753 23.037 26.9747 23.0144 26.9747C22.8293 26.9747 22.1205 26.8123 21.7728 26.6859C21.2807 26.51 20.8969 26.3069 20.4816 26.0046L20.1971 25.7926L21.2942 24.6962L22.3914 23.5953L22.5539 23.6765C22.6442 23.7216 22.7932 23.7848 22.888 23.8118ZM26.5677 25.9054C25.9943 26.3972 24.9423 26.8393 24.1071 26.9476L23.8678 26.9792V25.4226V23.8705L24.0845 23.7938C24.2019 23.7577 24.3463 23.6945 24.4096 23.6584C24.5224 23.5953 24.5405 23.6133 25.6196 24.6872L26.7167 25.779L26.5677 25.9054Z" fill="white"/>
</svg>
