<svg width="47" height="47" viewBox="0 0 47 47" fill="none" xmlns="http://www.w3.org/2000/svg">
<circle cx="23.5" cy="23.5" r="23.5" fill="#FF7682"/>
<path d="M22.1421 11.6394C21.1579 11.7342 19.948 12.023 19.0271 12.3885C17.8849 12.8398 16.6163 13.6024 15.7585 14.3515L15.5599 14.523L15.2619 14.2432C15.0994 14.0853 14.5396 13.5528 14.025 13.0564C13.5058 12.56 13.0182 12.1178 12.9415 12.0771C12.6255 11.9057 12.0973 12.014 11.876 12.2938C11.6955 12.5239 11.6684 12.7179 11.7271 13.3723C11.858 14.7893 12.1921 16.0302 12.806 17.3299L13.0137 17.7721L12.7789 18.264C11.4923 20.9761 11.3478 24.2523 12.3907 27.0908C12.648 27.7948 13.1853 28.8507 13.6006 29.4735L13.9798 30.0375L13.3433 30.6468C12.6345 31.3191 12.472 31.5583 12.341 32.1043C12.1785 32.8038 12.4088 33.5755 12.937 34.0899C13.4606 34.5953 14.2281 34.8074 14.9098 34.6269C15.429 34.4915 15.6005 34.3697 16.3454 33.6025L17.0497 32.8805L17.3612 33.0746C17.7765 33.3273 18.7427 33.7876 19.2799 33.9906C22.1466 35.0511 25.4061 34.8932 28.2097 33.5619L28.774 33.2957L29.2706 33.8101C29.8349 34.3923 30.1193 34.5592 30.6881 34.6585C32.1508 34.9067 33.4736 33.5845 33.2298 32.1179C33.1486 31.626 32.9589 31.2695 32.5436 30.8363L32.187 30.4662L32.503 30.0511C33.1305 29.2117 33.7354 28.0971 34.1056 27.0953C34.3359 26.4771 34.6022 25.3985 34.697 24.6991C34.8009 23.9861 34.8144 22.348 34.7241 21.7207C34.5797 20.7008 34.3404 19.7848 34.0108 18.9544L33.8077 18.4445L34.232 17.9978C34.5706 17.6458 34.6745 17.5059 34.7377 17.3209C34.986 16.5808 34.4217 15.7866 33.6542 15.7866C33.3653 15.7866 33.0854 15.9039 32.828 16.1295C32.6971 16.2468 32.5842 16.3326 32.5797 16.3236C32.5752 16.3145 32.521 16.2514 32.4623 16.1837L32.354 16.0618L32.5436 15.8542C32.7919 15.5835 32.8777 15.3759 32.8777 15.042C32.8822 14.5772 32.6204 14.1665 32.2095 13.977C31.8258 13.7965 31.2118 13.9183 30.9274 14.2252C30.792 14.3651 30.7739 14.3696 30.6069 14.2477L30.4805 14.153L30.6746 13.9138C30.9229 13.6069 30.9861 13.4129 30.959 13.0383C30.9319 12.6999 30.8552 12.5239 30.643 12.3118C30.4263 12.0907 30.1825 11.9959 29.8349 11.9959C29.4421 11.9959 29.1848 12.1268 28.783 12.5329L28.4715 12.8488L28.2006 12.7089C27.7537 12.4833 26.9411 12.1854 26.3316 12.0185C24.9772 11.6439 23.4965 11.5131 22.1421 11.6394ZM24.7831 12.4697C25.7131 12.6096 26.6747 12.8849 27.528 13.2459L27.9072 13.4084L25.9659 15.3533C24.8147 16.5086 23.9795 17.3795 23.9118 17.5014C23.5732 18.1061 23.5732 18.8461 23.9163 19.4418C23.9795 19.5546 24.1511 19.7712 24.2955 19.9202L24.5619 20.1999L24.3633 20.3714C24.2549 20.4707 23.8983 20.7956 23.5732 21.1025L22.9863 21.653L19.5508 18.3543L16.1107 15.0555L16.4402 14.7893C17.9436 13.5528 20.0203 12.6593 21.8938 12.4517C22.1286 12.4246 22.3949 12.393 22.4807 12.384C22.8148 12.3434 24.3317 12.4021 24.7831 12.4697ZM17.5102 17.4698C20.1963 20.0465 22.3904 22.172 22.3814 22.1945C22.3723 22.2126 21.9615 22.6052 21.4694 23.0655C20.4446 24.0177 20.5981 23.95 19.8668 23.7424C19.1309 23.5348 18.4312 23.1828 17.8397 22.727C17.4831 22.4518 16.6073 21.5763 16.1333 21.0167C14.034 18.5618 12.7654 15.958 12.5081 13.5663C12.4358 12.903 12.4404 12.754 12.5442 12.7721C12.5893 12.7811 14.824 14.893 17.5102 17.4698ZM30.0967 12.8623C30.169 12.93 30.2006 13.0113 30.2006 13.1196C30.2006 13.2685 30.0832 13.3948 28.1735 15.3127C26.7921 16.6936 26.1194 17.3976 26.0743 17.5104C25.9208 17.8759 26.0156 18.3723 26.2819 18.6115C26.5664 18.8732 27.0359 18.9499 27.3564 18.792C27.4422 18.7469 28.4309 17.7992 29.546 16.6846C31.3698 14.866 31.5956 14.6584 31.722 14.6584C31.9341 14.6584 32.1147 14.8299 32.1147 15.0375C32.1147 15.1954 32.0199 15.2947 30.0742 17.2441C28.6837 18.6386 28.0155 19.338 27.9659 19.4508C27.7537 19.9698 28.0562 20.6106 28.5844 20.755C28.8011 20.8137 29.1035 20.7821 29.2886 20.6873C29.3609 20.6512 30.3179 19.7171 31.424 18.6115C32.8506 17.181 33.4646 16.5943 33.5594 16.5718C33.8212 16.5086 34.0831 16.7703 34.0199 17.032C33.9792 17.1945 29.09 22.0953 28.8462 22.2171C28.7604 22.2622 28.5528 22.3074 28.3857 22.3209C27.9523 22.3525 27.7401 22.2577 27.3158 21.8561C26.9411 21.5041 26.8643 21.459 26.6928 21.4996C26.6205 21.5176 24.607 23.6476 20.9232 27.5872C14.5577 34.4013 15.0678 33.9094 14.3997 33.9004C13.9979 33.8959 13.727 33.7876 13.4561 33.5123C13.1672 33.228 13.0679 32.9753 13.0724 32.5511C13.0724 32.2533 13.095 32.1495 13.1943 31.9599C13.3252 31.7072 12.8647 32.1404 20.9728 24.5772C23.3836 22.3299 25.3926 20.4436 25.4332 20.385C25.5732 20.1819 25.528 20.0961 25.0359 19.5772C24.422 18.9364 24.3091 18.625 24.4942 18.0609C24.5619 17.8624 24.8102 17.5961 27.1036 15.2992C29.5911 12.8082 29.6408 12.7631 29.8123 12.7631C29.9342 12.7631 30.0245 12.7947 30.0967 12.8623ZM30.0877 14.8163L30.2231 14.9246L28.6656 16.486C27.8079 17.3434 27.072 18.0654 27.0314 18.0925C26.9366 18.1467 26.8237 18.1016 26.765 17.9887C26.7199 17.9075 26.8869 17.727 28.309 16.301C29.1893 15.421 29.9161 14.7035 29.9297 14.7035C29.9432 14.7035 30.0155 14.7532 30.0877 14.8163ZM30.4805 18.4581C29.6182 19.3245 28.8823 20.0285 28.8462 20.0285C28.7469 20.0285 28.6656 19.9382 28.6656 19.8299C28.6656 19.7667 29.1983 19.2072 30.2367 18.1647L31.8032 16.5988L31.9251 16.7432L32.047 16.8922L30.4805 18.4581ZM13.7586 19.0673C14.3997 20.1052 15.1085 21.0393 16.0068 22.0185C17.1851 23.3092 18.0926 23.95 19.3747 24.3967L19.8577 24.5682L17.4154 26.8426C16.0746 28.0971 14.8782 29.2072 14.7563 29.3155L14.5396 29.5096L14.2191 29.0222C13.5825 28.061 13.0543 26.8426 12.7699 25.6964C12.5487 24.7893 12.4855 24.2162 12.4855 23.1422C12.4855 22.0953 12.5442 21.5583 12.7609 20.6377C12.9234 19.9427 13.3884 18.6295 13.4652 18.6295C13.4787 18.6295 13.6096 18.8281 13.7586 19.0673ZM33.4465 19.6449C33.8664 20.8814 34.0108 21.7974 34.0108 23.1422C34.0108 24.487 33.8664 25.394 33.4465 26.6395C33.117 27.6188 32.3043 29.117 31.7491 29.7713L31.6181 29.9247L28.5166 26.9554C26.8101 25.3173 25.4151 23.9635 25.4151 23.9409C25.4151 23.9184 25.7267 23.5709 26.1059 23.1693L26.7921 22.4337L26.9952 22.6142C27.6002 23.1467 28.4128 23.264 29.1577 22.9166C29.4286 22.7902 29.6227 22.6097 31.3292 20.9084C32.3585 19.8795 33.2163 19.0537 33.2298 19.0718C33.2479 19.0898 33.3472 19.347 33.4465 19.6449ZM28.5302 28.0339C30.5211 29.9428 32.2005 31.5809 32.2592 31.6666C32.4037 31.8877 32.521 32.3616 32.4849 32.5917C32.4262 32.9618 32.3134 33.2054 32.0922 33.4491C31.7852 33.7831 31.5053 33.9049 31.0358 33.9004C30.345 33.9004 30.6024 34.135 26.7379 29.9202C24.8644 27.876 23.343 26.1792 23.352 26.1521C23.3836 26.0529 24.8057 24.5456 24.8599 24.5547C24.8869 24.5592 26.5393 26.1251 28.5302 28.0339ZM25.4693 29.672C26.9411 31.274 28.1645 32.6188 28.1826 32.6504C28.2593 32.7767 26.8824 33.3363 25.8892 33.589C24.914 33.8327 24.3452 33.9004 23.2482 33.9004C21.8757 33.9004 20.8013 33.7199 19.5688 33.2776C19.1354 33.1197 17.8533 32.5105 17.6772 32.3706C17.596 32.3074 17.596 32.3029 17.7043 32.1765C17.8623 31.987 22.7561 26.7523 22.7741 26.7523C22.7832 26.7523 23.9931 28.0655 25.4693 29.672Z" fill="white"/>
</svg>
