<svg width="19" height="19" viewBox="0 0 19 19" fill="none" xmlns="http://www.w3.org/2000/svg">
<g clip-path="url(#clip0_562_476)">
<path fill-rule="evenodd" clip-rule="evenodd" d="M7.71875 14.25C8.57645 14.25 9.42574 14.0811 10.2182 13.7528C11.0106 13.4246 11.7306 12.9435 12.337 12.337C12.9435 11.7306 13.4246 11.0106 13.7528 10.2182C14.0811 9.42574 14.25 8.57645 14.25 7.71875C14.25 6.86105 14.0811 6.01176 13.7528 5.21935C13.4246 4.42694 12.9435 3.70694 12.337 3.10046C11.7306 2.49398 11.0106 2.01289 10.2182 1.68466C9.42574 1.35644 8.57645 1.1875 7.71875 1.1875C5.98655 1.1875 4.32531 1.87561 3.10046 3.10046C1.87561 4.32531 1.1875 5.98655 1.1875 7.71875C1.1875 9.45095 1.87561 11.1122 3.10046 12.337C4.32531 13.5619 5.98655 14.25 7.71875 14.25ZM15.4375 7.71875C15.4375 9.76589 14.6243 11.7292 13.1767 13.1767C11.7292 14.6243 9.76589 15.4375 7.71875 15.4375C5.67161 15.4375 3.70832 14.6243 2.26077 13.1767C0.813223 11.7292 0 9.76589 0 7.71875C0 5.67161 0.813223 3.70832 2.26077 2.26077C3.70832 0.813223 5.67161 0 7.71875 0C9.76589 0 11.7292 0.813223 13.1767 2.26077C14.6243 3.70832 15.4375 5.67161 15.4375 7.71875Z" fill="white"/>
<path d="M12.2852 13.9435C12.32 13.991 12.3588 14.0366 12.4015 14.0801L16.9734 18.652C17.1961 18.8748 17.4981 19 17.8131 19.0002C18.1282 19.0003 18.4303 18.8752 18.6531 18.6526C18.8759 18.4299 19.0012 18.1278 19.0013 17.8128C19.0014 17.4978 18.8764 17.1957 18.6537 16.9729L14.0818 12.401C14.0394 12.358 13.9938 12.3183 13.9453 12.2822C13.48 12.9179 12.9201 13.4785 12.2852 13.9447V13.9435Z" fill="white"/>
<path fill-rule="evenodd" clip-rule="evenodd" d="M3.5625 7.71875C3.5625 7.56128 3.62506 7.41026 3.73641 7.29891C3.84776 7.18756 3.99878 7.125 4.15625 7.125H11.2812C11.4387 7.125 11.5897 7.18756 11.7011 7.29891C11.8124 7.41026 11.875 7.56128 11.875 7.71875C11.875 7.87622 11.8124 8.02724 11.7011 8.13859C11.5897 8.24994 11.4387 8.3125 11.2812 8.3125H4.15625C3.99878 8.3125 3.84776 8.24994 3.73641 8.13859C3.62506 8.02724 3.5625 7.87622 3.5625 7.71875Z" fill="white"/>
</g>
<defs>
<clipPath id="clip0_562_476">
<rect width="19" height="19" fill="white"/>
</clipPath>
</defs>
</svg>
