<svg width="13" height="13" viewBox="0 0 13 13" fill="none" xmlns="http://www.w3.org/2000/svg">
<g clip-path="url(#clip0_562_325)">
<path d="M6.90653 4.46875C6.90653 4.36101 6.86373 4.25767 6.78755 4.18149C6.71136 4.1053 6.60803 4.0625 6.50028 4.0625C6.39254 4.0625 6.28921 4.1053 6.21302 4.18149C6.13683 4.25767 6.09403 4.36101 6.09403 4.46875V7.20038L4.93297 9.13413C4.87748 9.22657 4.86099 9.33727 4.88712 9.44187C4.91325 9.54648 4.97987 9.63642 5.07231 9.69191C5.16476 9.7474 5.27546 9.76389 5.38006 9.73776C5.48467 9.71162 5.57461 9.64501 5.6301 9.55256L6.84885 7.52131C6.88662 7.45821 6.90656 7.38604 6.90653 7.3125V4.46875Z" fill="black"/>
<path d="M5.28125 0C5.17351 0 5.07017 0.0428012 4.99399 0.118988C4.9178 0.195175 4.875 0.298506 4.875 0.40625C4.875 0.513994 4.9178 0.617325 4.99399 0.693512C5.07017 0.769699 5.17351 0.8125 5.28125 0.8125H5.6875V1.68187C4.5811 1.84172 3.54632 2.32403 2.71243 3.06855C1.87854 3.81306 1.28251 4.78678 0.9988 5.86807C0.715085 6.94936 0.756264 8.09028 1.11719 9.1483C1.47812 10.2063 2.1428 11.1345 3.02819 11.817L2.53906 12.3061C2.46278 12.3823 2.41988 12.4857 2.41981 12.5935C2.41973 12.7013 2.46248 12.8047 2.53866 12.881C2.61483 12.9573 2.71819 13.0002 2.82599 13.0002C2.9338 13.0003 3.03722 12.9576 3.1135 12.8814L3.71963 12.2752C4.5687 12.7518 5.52631 13.0015 6.5 13C7.47369 13.0015 8.4313 12.7518 9.28037 12.2752L9.8865 12.8814C9.96278 12.9576 10.0662 13.0003 10.174 13.0002C10.2818 13.0002 10.3852 12.9573 10.4613 12.881C10.5375 12.8047 10.5803 12.7013 10.5802 12.5935C10.5801 12.4857 10.5372 12.3823 10.4609 12.3061L9.97263 11.817C10.858 11.1345 11.5227 10.2062 11.8836 9.14812C12.2445 8.09003 12.2856 6.94907 12.0018 5.86776C11.718 4.78645 11.1218 3.81274 10.2878 3.06827C9.45384 2.32381 8.41897 1.84159 7.3125 1.68187V0.8125H7.71875C7.82649 0.8125 7.92983 0.769699 8.00601 0.693512C8.0822 0.617325 8.125 0.513994 8.125 0.40625C8.125 0.298506 8.0822 0.195175 8.00601 0.118988C7.92983 0.0428012 7.82649 0 7.71875 0L5.28125 0ZM6.12463 2.45212C6.3745 2.43283 6.6255 2.43283 6.87537 2.45212C8.13204 2.54918 9.30228 3.12918 10.1405 4.07042C10.9788 5.01167 11.4199 6.241 11.3714 7.50048C11.3228 8.75995 10.7883 9.95167 9.88009 10.8256C8.97184 11.6995 7.76041 12.1877 6.5 12.1877C5.23959 12.1877 4.02817 11.6995 3.11991 10.8256C2.21166 9.95167 1.67718 8.75995 1.62862 7.50048C1.58006 6.241 2.02119 5.01167 2.85945 4.07042C3.69772 3.12918 4.86796 2.54918 6.12463 2.45212ZM2.05796e-09 2.84375C2.05796e-09 3.45556 0.270563 4.00481 0.69875 4.37694C1.32602 3.14206 2.32956 2.13852 3.56444 1.51125C3.29296 1.19887 2.93255 0.976864 2.53143 0.874954C2.13031 0.773044 1.70764 0.796091 1.31998 0.94101C0.932322 1.08593 0.59818 1.3458 0.36228 1.68585C0.126381 2.0259 -1.86228e-05 2.42989 2.05796e-09 2.84375ZM10.9688 0.8125C10.3569 0.8125 9.80769 1.08306 9.43556 1.51125C10.6704 2.13852 11.674 3.14206 12.3013 4.37694C12.6136 4.10546 12.8356 3.74505 12.9375 3.34393C13.0395 2.94281 13.0164 2.52014 12.8715 2.13248C12.7266 1.74482 12.4667 1.41068 12.1266 1.17478C11.7866 0.938881 11.3826 0.812481 10.9688 0.8125Z" fill="black"/>
</g>
<defs>
<clipPath id="clip0_562_325">
<rect width="13" height="13" fill="white"/>
</clipPath>
</defs>
</svg>
