<svg width="13" height="13" viewBox="0 0 13 13" fill="none" xmlns="http://www.w3.org/2000/svg">
<path d="M6.5 13C5.60555 13 4.76296 12.8289 3.97222 12.4868C3.18149 12.1447 2.49283 11.6803 1.90625 11.0937C1.31967 10.5072 0.855322 9.81851 0.513193 9.02778C0.171064 8.23704 0 7.39445 0 6.5C0 5.60277 0.171064 4.75949 0.513193 3.97015C0.855322 3.18079 1.31967 2.49283 1.90625 1.90625C2.49283 1.31967 3.18149 0.855321 3.97222 0.513193C4.76296 0.171064 5.60555 0 6.5 0C7.39723 0 8.24051 0.171064 9.02985 0.513193C9.81921 0.855321 10.5072 1.31967 11.0937 1.90625C11.6803 2.49283 12.1447 3.18079 12.4868 3.97015C12.8289 4.75949 13 5.60277 13 6.5C13 7.39445 12.8289 8.23704 12.4868 9.02778C12.1447 9.81851 11.6803 10.5072 11.0937 11.0937C10.5072 11.6803 9.81921 12.1447 9.02985 12.4868C8.24051 12.8289 7.39723 13 6.5 13ZM6.5 12.2833C6.92408 11.7389 7.27361 11.2042 7.54861 10.6792C7.82361 10.1542 8.04722 9.56666 8.21945 8.91666H4.78055C4.97129 9.6037 5.19953 10.2097 5.46527 10.7347C5.73101 11.2597 6.07592 11.7759 6.5 12.2833ZM5.58056 12.175C5.24352 11.7778 4.93588 11.2868 4.65763 10.7021C4.37939 10.1174 4.17222 9.52222 4.0361 8.91666H1.26667C1.68056 9.81482 2.26737 10.5514 3.02709 11.1264C3.7868 11.7014 4.63796 12.0509 5.58056 12.175ZM7.41944 12.175C8.36204 12.0509 9.2132 11.7014 9.97291 11.1264C10.7326 10.5514 11.3194 9.81482 11.7333 8.91666H8.9639C8.78149 9.53148 8.55116 10.1312 8.27293 10.716C7.99468 11.3007 7.71018 11.787 7.41944 12.175ZM0.972219 8.19444H3.88612C3.83148 7.89815 3.79282 7.6095 3.77014 7.32848C3.74745 7.04745 3.73611 6.77129 3.73611 6.5C3.73611 6.22871 3.74745 5.95255 3.77014 5.67152C3.79282 5.3905 3.83148 5.10185 3.88612 4.80556H0.972219C0.893521 5.05556 0.832181 5.32801 0.788197 5.62291C0.744214 5.91782 0.722222 6.21018 0.722222 6.5C0.722222 6.78982 0.744214 7.08218 0.788197 7.37708C0.832181 7.67199 0.893521 7.94444 0.972219 8.19444ZM4.60834 8.19444H8.39166C8.4463 7.89815 8.48496 7.61412 8.50763 7.34236C8.53032 7.0706 8.54167 6.78982 8.54167 6.5C8.54167 6.21018 8.53032 5.9294 8.50763 5.65764C8.48496 5.38588 8.4463 5.10185 8.39166 4.80556H4.60834C4.5537 5.10185 4.51504 5.38588 4.49237 5.65764C4.46968 5.9294 4.45833 6.21018 4.45833 6.5C4.45833 6.78982 4.46968 7.0706 4.49237 7.34236C4.51504 7.61412 4.5537 7.89815 4.60834 8.19444ZM9.11388 8.19444H12.0278C12.1065 7.94444 12.1678 7.67199 12.2118 7.37708C12.2558 7.08218 12.2778 6.78982 12.2778 6.5C12.2778 6.21018 12.2558 5.91782 12.2118 5.62291C12.1678 5.32801 12.1065 5.05556 12.0278 4.80556H9.11388C9.16852 5.10185 9.20718 5.3905 9.22987 5.67152C9.25255 5.95255 9.26389 6.22871 9.26389 6.5C9.26389 6.77129 9.25255 7.04745 9.22987 7.32848C9.20718 7.6095 9.16852 7.89815 9.11388 8.19444ZM8.9639 4.08334H11.7333C11.3102 3.16667 10.7303 2.43009 9.99375 1.87361C9.25718 1.31713 8.39908 0.962968 7.41944 0.811109C7.75648 1.25463 8.05949 1.7618 8.32847 2.33263C8.59746 2.90347 8.80927 3.48703 8.9639 4.08334ZM4.78055 4.08334H8.21945C8.02871 3.40555 7.79352 2.79259 7.51389 2.24445C7.23426 1.6963 6.8963 1.18703 6.5 0.716661C6.1037 1.18703 5.76574 1.6963 5.48611 2.24445C5.20648 2.79259 4.97129 3.40555 4.78055 4.08334ZM1.26667 4.08334H4.0361C4.19073 3.48703 4.40254 2.90347 4.67153 2.33263C4.94051 1.7618 5.24352 1.25463 5.58056 0.811109C4.59167 0.962968 3.73125 1.31945 2.9993 1.88056C2.26736 2.44166 1.68982 3.17592 1.26667 4.08334Z" fill="black"/>
</svg>
