<svg width="18" height="18" viewBox="0 0 18 18" fill="none" xmlns="http://www.w3.org/2000/svg">
<circle cx="9" cy="9" r="9" fill="#FAE100"/>
<path d="M9 15C9 15 13.5 10.7355 13.5 7.5C13.5 6.30653 13.0259 5.16193 12.182 4.31802C11.3381 3.47411 10.1935 3 9 3C7.80653 3 6.66193 3.47411 5.81802 4.31802C4.97411 5.16193 4.5 6.30653 4.5 7.5C4.5 10.7355 9 15 9 15ZM9 9.75C8.40326 9.75 7.83097 9.51295 7.40901 9.09099C6.98705 8.66903 6.75 8.09674 6.75 7.5C6.75 6.90326 6.98705 6.33097 7.40901 5.90901C7.83097 5.48705 8.40326 5.25 9 5.25C9.59674 5.25 10.169 5.48705 10.591 5.90901C11.0129 6.33097 11.25 6.90326 11.25 7.5C11.25 8.09674 11.0129 8.66903 10.591 9.09099C10.169 9.51295 9.59674 9.75 9 9.75Z" fill="#007DFF"/>
</svg>
