<svg width="13" height="14" viewBox="0 0 13 14" fill="none" xmlns="http://www.w3.org/2000/svg">
<g clip-path="url(#clip0_562_322)">
<path d="M9.88488 8.13875C9.45913 9.00162 8.88225 9.86125 8.29238 10.6331C7.7322 11.3603 7.1339 12.0573 6.5 12.7212C5.8661 12.0573 5.2678 11.3603 4.70763 10.6331C4.11775 9.86125 3.54088 9.00162 3.11513 8.13875C2.6845 7.26694 2.4375 6.45037 2.4375 5.75C2.4375 4.67256 2.86551 3.63925 3.62738 2.87738C4.38925 2.11551 5.42256 1.6875 6.5 1.6875C7.57744 1.6875 8.61075 2.11551 9.37262 2.87738C10.1345 3.63925 10.5625 4.67256 10.5625 5.75C10.5625 6.45037 10.3147 7.26694 9.88488 8.13875ZM6.5 13.875C6.5 13.875 11.375 9.25513 11.375 5.75C11.375 4.45707 10.8614 3.21709 9.94715 2.30285C9.03291 1.38861 7.79293 0.875 6.5 0.875C5.20707 0.875 3.96709 1.38861 3.05285 2.30285C2.13861 3.21709 1.625 4.45707 1.625 5.75C1.625 9.25513 6.5 13.875 6.5 13.875Z" fill="black"/>
<path d="M6.5 7.375C6.06902 7.375 5.6557 7.2038 5.35095 6.89905C5.0462 6.5943 4.875 6.18098 4.875 5.75C4.875 5.31902 5.0462 4.9057 5.35095 4.60095C5.6557 4.2962 6.06902 4.125 6.5 4.125C6.93098 4.125 7.3443 4.2962 7.64905 4.60095C7.95379 4.9057 8.125 5.31902 8.125 5.75C8.125 6.18098 7.95379 6.5943 7.64905 6.89905C7.3443 7.2038 6.93098 7.375 6.5 7.375ZM6.5 8.1875C7.14647 8.1875 7.76645 7.93069 8.22357 7.47357C8.68069 7.01645 8.9375 6.39647 8.9375 5.75C8.9375 5.10353 8.68069 4.48355 8.22357 4.02643C7.76645 3.56931 7.14647 3.3125 6.5 3.3125C5.85353 3.3125 5.23355 3.56931 4.77643 4.02643C4.31931 4.48355 4.0625 5.10353 4.0625 5.75C4.0625 6.39647 4.31931 7.01645 4.77643 7.47357C5.23355 7.93069 5.85353 8.1875 6.5 8.1875Z" fill="black"/>
</g>
<defs>
<clipPath id="clip0_562_322">
<rect width="13" height="13" fill="white" transform="translate(0 0.875)"/>
</clipPath>
</defs>
</svg>
