<svg width="55" height="56" viewBox="0 0 55 56" fill="none" xmlns="http://www.w3.org/2000/svg">
<ellipse cx="27.5" cy="28" rx="27.5" ry="28" fill="black"/>
<path d="M26.0078 20.6381L16.4946 30.8953C15.3719 32.1061 16.2843 34 17.9882 34H37.0147C37.3961 34.0003 37.7694 33.8969 38.09 33.7022C38.4107 33.5075 38.665 33.2297 38.8227 32.9021C38.9803 32.5745 39.0344 32.2109 38.9787 31.855C38.9229 31.4991 38.7597 31.1659 38.5084 30.8953L28.9951 20.64C28.8089 20.439 28.5793 20.2779 28.3217 20.1675C28.0641 20.0571 27.7844 20 27.5015 20C27.2185 20 26.9389 20.0571 26.6813 20.1675C26.4236 20.2779 26.194 20.4371 26.0078 20.6381Z" fill="white"/>
</svg>
