<svg width="56" height="56" viewBox="0 0 56 56" fill="none" xmlns="http://www.w3.org/2000/svg">
<path d="M56 28C56 35.4261 53.05 42.548 47.799 47.799C42.548 53.05 35.4261 56 28 56C20.5739 56 13.452 53.05 8.20101 47.799C2.94999 42.548 0 35.4261 0 28C0 20.5739 2.94999 13.452 8.20101 8.20101C13.452 2.94999 20.5739 0 28 0C35.4261 0 42.548 2.94999 47.799 8.20101C53.05 13.452 56 20.5739 56 28ZM19.236 21.1155H22.1235C22.6065 21.1155 22.9915 20.72 23.0545 20.2405C23.3695 17.9445 24.9445 16.2715 27.7515 16.2715C30.1525 16.2715 32.3505 17.472 32.3505 20.3595C32.3505 22.582 31.0415 23.604 28.973 25.158C26.6175 26.8695 24.752 28.868 24.885 32.1125L24.8955 32.872C24.8992 33.1016 24.993 33.3206 25.1567 33.4817C25.3204 33.6428 25.5408 33.733 25.7705 33.733H28.609C28.8411 33.733 29.0636 33.6408 29.2277 33.4767C29.3918 33.3126 29.484 33.0901 29.484 32.858V32.4905C29.484 29.9775 30.4395 29.246 33.019 27.2895C35.1505 25.669 37.373 23.87 37.373 20.0935C37.373 14.805 32.907 12.25 28.0175 12.25C23.583 12.25 18.725 14.315 18.3925 20.251C18.3877 20.364 18.4061 20.4768 18.4465 20.5825C18.4869 20.6882 18.5485 20.7844 18.6275 20.8654C18.7066 20.9464 18.8013 21.0103 18.9059 21.0534C19.0106 21.0964 19.1229 21.1175 19.236 21.1155ZM27.3735 43.666C29.5085 43.666 30.975 42.287 30.975 40.4215C30.975 38.4895 29.505 37.1315 27.3735 37.1315C25.3295 37.1315 23.842 38.4895 23.842 40.4215C23.842 42.287 25.326 43.666 27.3735 43.666Z" fill="black"/>
</svg>
