<svg width="33" height="28" viewBox="0 0 33 28" fill="none" xmlns="http://www.w3.org/2000/svg">
<path d="M13.8463 15.8733C13.8463 14.399 12.6455 13.1982 11.1712 13.1982C9.69684 13.1982 8.49609 14.399 8.49609 15.8733C8.49609 17.3477 9.69684 18.5484 11.1712 18.5484C12.6455 18.5484 13.8463 17.3477 13.8463 15.8733ZM11.1712 17.1095C10.4872 17.1095 9.93497 16.5573 9.93497 15.8733C9.93497 15.1894 10.4872 14.6371 11.1712 14.6371C11.8552 14.6371 12.4074 15.1894 12.4074 15.8733C12.4074 16.5522 11.8501 17.1095 11.1712 17.1095Z" fill="white"/>
<path d="M19.3562 21.5221C17.279 22.3176 15.2068 22.3176 13.1346 21.5221C12.2683 21.1877 11.8933 22.581 12.7496 22.9103C15.0345 23.7868 17.4512 23.7868 19.7362 22.9103C20.5924 22.581 20.2226 21.1928 19.3562 21.5221Z" fill="white"/>
<path d="M30.9104 13.193H29.4158C29.3702 13.193 29.3246 13.1981 29.2841 13.1981V12.1038C29.2841 10.1836 27.7236 8.6231 25.8034 8.6231H16.9625V5.24885C18.0872 4.93473 18.9181 3.90117 18.9181 2.67509C18.9181 1.20075 17.7174 0 16.243 0C14.7687 0 13.568 1.20075 13.568 2.67509C13.568 3.90117 14.3989 4.93473 15.5236 5.24885V8.6231H6.67759C4.7574 8.6231 3.19693 10.1836 3.19693 12.1038V13.1981C3.15133 13.193 3.1108 13.193 3.0652 13.193H1.5706C0.704237 13.193 0 13.8973 0 14.7636V20.4735C0 21.3399 0.704237 22.0441 1.5706 22.0441H3.0652C3.1108 22.0441 3.1564 22.0391 3.19693 22.0391V23.5387C3.19693 25.4589 4.7574 27.0194 6.67759 27.0194H25.8085C27.7287 27.0194 29.2892 25.4589 29.2892 23.5387V22.0441C29.3348 22.0492 29.3753 22.0492 29.4209 22.0492H30.9155C31.7819 22.0492 32.4861 21.345 32.4861 20.4786V14.7687C32.481 13.9023 31.7768 13.193 30.9104 13.193ZM3.19693 20.4786C3.19693 20.5546 3.13613 20.6103 3.0652 20.6103H1.5706C1.49967 20.6103 1.43887 20.5495 1.43887 20.4786V14.7687C1.43887 14.6978 1.49967 14.637 1.5706 14.637H3.0652C3.13613 14.637 3.19693 14.6978 3.19693 14.7687V20.4786ZM15.0068 2.68015C15.0068 1.99618 15.5591 1.44394 16.243 1.44394C16.927 1.44394 17.4793 1.99618 17.4793 2.68015C17.4793 3.36413 16.927 3.91637 16.243 3.91637C15.5591 3.91637 15.0068 3.36413 15.0068 2.68015ZM27.8452 14.7687V20.4786V23.5438C27.8452 24.6686 26.9282 25.5805 25.8085 25.5805H6.67759C5.55283 25.5805 4.6358 24.6635 4.6358 23.5438V20.4786V14.7687V12.1088C4.6358 10.9841 5.55283 10.067 6.67759 10.067H25.8085C26.9333 10.067 27.8452 10.9841 27.8452 12.1088V14.7687ZM31.0422 20.4786C31.0422 20.5546 30.9814 20.6103 30.9104 20.6103H29.4158C29.3449 20.6103 29.2841 20.5495 29.2841 20.4786V14.7687C29.2841 14.6978 29.3449 14.637 29.4158 14.637H30.9104C30.9814 14.637 31.0422 14.6978 31.0422 14.7687V20.4786Z" fill="white"/>
<path d="M21.3157 13.1929C19.8414 13.1929 18.6406 14.3936 18.6406 15.868C18.6406 17.3423 19.8414 18.543 21.3157 18.543C22.79 18.543 23.9908 17.3423 23.9908 15.868C23.9908 14.3936 22.79 13.1929 21.3157 13.1929ZM21.3157 17.1092C20.6317 17.1092 20.0795 16.557 20.0795 15.873C20.0795 15.1891 20.6368 14.6368 21.3157 14.6368C21.9946 14.6368 22.5519 15.1891 22.5519 15.873C22.5519 16.5519 21.9946 17.1092 21.3157 17.1092Z" fill="white"/>
</svg>
