<svg width="55" height="56" viewBox="0 0 55 56" fill="none" xmlns="http://www.w3.org/2000/svg">
<ellipse cx="27.5" cy="28" rx="27.5" ry="28" fill="black"/>
<path d="M25.0377 29.5193C25.0377 28.045 23.8369 26.8442 22.3626 26.8442C20.8882 26.8442 19.6875 28.045 19.6875 29.5193C19.6875 30.9937 20.8882 32.1944 22.3626 32.1944C23.8369 32.1944 25.0377 30.9937 25.0377 29.5193ZM22.3626 30.7555C21.6786 30.7555 21.1264 30.2033 21.1264 29.5193C21.1264 28.8354 21.6786 28.2831 22.3626 28.2831C23.0466 28.2831 23.5988 28.8354 23.5988 29.5193C23.5988 30.1982 23.0415 30.7555 22.3626 30.7555Z" fill="white"/>
<path d="M30.5476 35.1681C28.4704 35.9636 26.3982 35.9636 24.326 35.1681C23.4597 34.8337 23.0848 36.227 23.941 36.5563C26.226 37.4328 28.6427 37.4328 30.9276 36.5563C31.7839 36.227 31.414 34.8388 30.5476 35.1681Z" fill="white"/>
<path d="M42.1018 26.839H40.6072C40.5616 26.839 40.516 26.8441 40.4755 26.8441V25.7498C40.4755 23.8296 38.915 22.2691 36.9949 22.2691H28.1539V18.8948C29.2786 18.5807 30.1095 17.5472 30.1095 16.3211C30.1095 14.8467 28.9088 13.646 27.4345 13.646C25.9601 13.646 24.7594 14.8467 24.7594 16.3211C24.7594 17.5472 25.5903 18.5807 26.715 18.8948V22.2691H17.869C15.9488 22.2691 14.3883 23.8296 14.3883 25.7498V26.8441C14.3427 26.839 14.3022 26.839 14.2566 26.839H12.762C11.8956 26.839 11.1914 27.5433 11.1914 28.4096V34.1195C11.1914 34.9859 11.8956 35.6901 12.762 35.6901H14.2566C14.3022 35.6901 14.3478 35.6851 14.3883 35.6851V37.1847C14.3883 39.1049 15.9488 40.6654 17.869 40.6654H36.9999C38.9201 40.6654 40.4806 39.1049 40.4806 37.1847V35.6901C40.5262 35.6952 40.5667 35.6952 40.6123 35.6952H42.1069C42.9733 35.6952 43.6775 34.991 43.6775 34.1246V28.4147C43.6724 27.5483 42.9682 26.839 42.1018 26.839ZM14.3883 34.1246C14.3883 34.2006 14.3275 34.2563 14.2566 34.2563H12.762C12.6911 34.2563 12.6303 34.1955 12.6303 34.1246V28.4147C12.6303 28.3438 12.6911 28.283 12.762 28.283H14.2566C14.3275 28.283 14.3883 28.3438 14.3883 28.4147V34.1246ZM26.1982 16.3262C26.1982 15.6422 26.7505 15.0899 27.4345 15.0899C28.1184 15.0899 28.6707 15.6422 28.6707 16.3262C28.6707 17.0101 28.1184 17.5624 27.4345 17.5624C26.7505 17.5624 26.1982 17.0101 26.1982 16.3262ZM39.0366 28.4147V34.1246V37.1898C39.0366 38.3146 38.1196 39.2265 36.9999 39.2265H17.869C16.7442 39.2265 15.8272 38.3095 15.8272 37.1898V34.1246V28.4147V25.7548C15.8272 24.6301 16.7442 23.713 17.869 23.713H36.9999C38.1247 23.713 39.0366 24.6301 39.0366 25.7548V28.4147ZM42.2336 34.1246C42.2336 34.2006 42.1728 34.2563 42.1018 34.2563H40.6072C40.5363 34.2563 40.4755 34.1955 40.4755 34.1246V28.4147C40.4755 28.3438 40.5363 28.283 40.6072 28.283H42.1018C42.1728 28.283 42.2336 28.3438 42.2336 28.4147V34.1246Z" fill="white"/>
<path d="M32.5071 26.8389C31.0328 26.8389 29.832 28.0396 29.832 29.514C29.832 30.9883 31.0328 32.189 32.5071 32.189C33.9815 32.189 35.1822 30.9883 35.1822 29.514C35.1822 28.0396 33.9815 26.8389 32.5071 26.8389ZM32.5071 30.7552C31.8231 30.7552 31.2709 30.203 31.2709 29.519C31.2709 28.835 31.8282 28.2828 32.5071 28.2828C33.186 28.2828 33.7433 28.835 33.7433 29.519C33.7433 30.1979 33.186 30.7552 32.5071 30.7552Z" fill="white"/>
</svg>
